<svg width="800" height="800" viewBox="0 0 32 32" xmlns="http://www.w3.org/2000/svg"><path d="M26 20.75a5.208 5.208 0 0 0-3.972 1.856l-.006.008-10.91-5.455c.088-.348.139-.747.139-1.159s-.05-.811-.146-1.193l.007.034 10.911-5.455a5.222 5.222 0 1 0-1.272-3.415v.031V6c.003.412.053.811.146 1.194l-.007-.036-10.911 5.455a5.25 5.25 0 1 0-.006 6.779l.006-.008 10.911 5.455a5.245 5.245 0 1 0 5.116-4.091h-.005zm0-17.5A2.75 2.75 0 1 1 23.25 6 2.754 2.754 0 0 1 26 3.25zM6 18.75A2.75 2.75 0 1 1 8.75 16 2.754 2.754 0 0 1 6 18.75zm20 10A2.75 2.75 0 1 1 28.75 26 2.754 2.754 0 0 1 26 28.75z" fill="white"/></svg>