<svg id="help-outline" width="16" height="17" viewBox="0 0 16 17" fill="none" xmlns="http://www.w3.org/2000/svg">
<path d="M7.3335 12.7499H8.66683V11.4166H7.3335V12.7499ZM8.00016 2.08325C4.32016 2.08325 1.3335 5.06992 1.3335 8.74992C1.3335 12.4299 4.32016 15.4166 8.00016 15.4166C11.6802 15.4166 14.6668 12.4299 14.6668 8.74992C14.6668 5.06992 11.6802 2.08325 8.00016 2.08325ZM8.00016 14.0833C5.06016 14.0833 2.66683 11.6899 2.66683 8.74992C2.66683 5.80992 5.06016 3.41659 8.00016 3.41659C10.9402 3.41659 13.3335 5.80992 13.3335 8.74992C13.3335 11.6899 10.9402 14.0833 8.00016 14.0833ZM8.00016 4.74992C6.52683 4.74992 5.3335 5.94325 5.3335 7.41659H6.66683C6.66683 6.68325 7.26683 6.08325 8.00016 6.08325C8.7335 6.08325 9.3335 6.68325 9.3335 7.41659C9.3335 8.74992 7.3335 8.58325 7.3335 10.7499H8.66683C8.66683 9.24992 10.6668 9.08325 10.6668 7.41659C10.6668 5.94325 9.4735 4.74992 8.00016 4.74992Z" fill="currentColor"/>
</svg>
