<svg id="information" width="16" height="17" viewBox="0 0 16 17" fill="none" xmlns="http://www.w3.org/2000/svg">
<rect opacity="0.01" y="0.75" width="16" height="16" fill="white"/>
<path fill-rule="evenodd" clip-rule="evenodd" d="M8 0.75C3.58077 0.75 0 4.33077 0 8.75C0 13.1692 3.58077 16.75 8 16.75C12.4192 16.75 16 13.1692 16 8.75C16 4.33077 12.4192 0.75 8 0.75ZM9 12.75H7V7.75H9V12.75ZM7.99515 6.75C7.4466 6.75 7 6.31892 7 5.74749C7 5.17606 7.45146 4.75 7.99515 4.75C8.54854 4.75 9 5.17606 9 5.74749C9 6.31892 8.54854 6.75 7.99515 6.75Z" fill="currentColor"/>
</svg>
