<svg id="remove-red-eye" width="16" height="17" viewBox="0 0 16 17" fill="none" xmlns="http://www.w3.org/2000/svg">
<path d="M7.99984 5.08333C10.5265 5.08333 12.7798 6.50333 13.8798 8.75C12.7798 10.9967 10.5332 12.4167 7.99984 12.4167C5.4665 12.4167 3.21984 10.9967 2.11984 8.75C3.21984 6.50333 5.47317 5.08333 7.99984 5.08333ZM7.99984 3.75C4.6665 3.75 1.81984 5.82333 0.666504 8.75C1.81984 11.6767 4.6665 13.75 7.99984 13.75C11.3332 13.75 14.1798 11.6767 15.3332 8.75C14.1798 5.82333 11.3332 3.75 7.99984 3.75ZM7.99984 7.08333C8.91984 7.08333 9.6665 7.83 9.6665 8.75C9.6665 9.67 8.91984 10.4167 7.99984 10.4167C7.07984 10.4167 6.33317 9.67 6.33317 8.75C6.33317 7.83 7.07984 7.08333 7.99984 7.08333ZM7.99984 5.75C6.3465 5.75 4.99984 7.09667 4.99984 8.75C4.99984 10.4033 6.3465 11.75 7.99984 11.75C9.65317 11.75 10.9998 10.4033 10.9998 8.75C10.9998 7.09667 9.65317 5.75 7.99984 5.75Z" fill="currentColor"/>
</svg>
