<svg id="settings" width="16" height="17" viewBox="0 0 16 17" fill="none" xmlns="http://www.w3.org/2000/svg">
<path d="M12.9532 9.40325C12.9799 9.18992 12.9999 8.97659 12.9999 8.74992C12.9999 8.52325 12.9799 8.30992 12.9532 8.09659L14.3599 6.99659C14.4866 6.89659 14.5199 6.71659 14.4399 6.56992L13.1066 4.26325C13.0466 4.15659 12.9332 4.09659 12.8132 4.09659C12.7732 4.09659 12.7332 4.10325 12.6999 4.11659L11.0399 4.78325C10.6932 4.51659 10.3199 4.29659 9.91323 4.12992L9.65989 2.36325C9.63989 2.20325 9.49989 2.08325 9.33323 2.08325H6.66656C6.49989 2.08325 6.35989 2.20325 6.33989 2.36325L6.08656 4.12992C5.67989 4.29659 5.30656 4.52325 4.95989 4.78325L3.29989 4.11659C3.25989 4.10325 3.21989 4.09659 3.17989 4.09659C3.06656 4.09659 2.95323 4.15659 2.89323 4.26325L1.55989 6.56992C1.47323 6.71659 1.51323 6.89659 1.63989 6.99659L3.04656 8.09659C3.01989 8.30992 2.99989 8.52992 2.99989 8.74992C2.99989 8.96992 3.01989 9.18992 3.04656 9.40325L1.63989 10.5033C1.51323 10.6033 1.47989 10.7833 1.55989 10.9299L2.89323 13.2366C2.95323 13.3433 3.06656 13.4033 3.18656 13.4033C3.22656 13.4033 3.26656 13.3966 3.29989 13.3833L4.95989 12.7166C5.30656 12.9833 5.67989 13.2033 6.08656 13.3699L6.33989 15.1366C6.35989 15.2966 6.49989 15.4166 6.66656 15.4166H9.33323C9.49989 15.4166 9.63989 15.2966 9.65989 15.1366L9.91323 13.3699C10.3199 13.2033 10.6932 12.9766 11.0399 12.7166L12.6999 13.3833C12.7399 13.3966 12.7799 13.4033 12.8199 13.4033C12.9332 13.4033 13.0466 13.3433 13.1066 13.2366L14.4399 10.9299C14.5199 10.7833 14.4866 10.6033 14.3599 10.5033L12.9532 9.40325ZM11.6332 8.26325C11.6599 8.46992 11.6666 8.60992 11.6666 8.74992C11.6666 8.88992 11.6532 9.03659 11.6332 9.23659L11.5399 9.98992L12.1332 10.4566L12.8532 11.0166L12.3866 11.8233L11.5399 11.4833L10.8466 11.2033L10.2466 11.6566C9.95989 11.8699 9.68656 12.0299 9.41323 12.1433L8.70656 12.4299L8.59989 13.1833L8.46656 14.0833H7.53323L7.40656 13.1833L7.29989 12.4299L6.59323 12.1433C6.30656 12.0233 6.03989 11.8699 5.77323 11.6699L5.16656 11.2033L4.45989 11.4899L3.61323 11.8299L3.14656 11.0233L3.86656 10.4633L4.45989 9.99659L4.36656 9.24325C4.34656 9.03659 4.33323 8.88325 4.33323 8.74992C4.33323 8.61659 4.34656 8.46325 4.36656 8.26325L4.45989 7.50992L3.86656 7.04325L3.14656 6.48325L3.61323 5.67659L4.45989 6.01659L5.15323 6.29659L5.75323 5.84325C6.03989 5.62992 6.31323 5.46992 6.58656 5.35659L7.29323 5.06992L7.39989 4.31659L7.53323 3.41659H8.45989L8.58656 4.31659L8.69323 5.06992L9.39989 5.35659C9.68656 5.47659 9.95323 5.62992 10.2199 5.82992L10.8266 6.29659L11.5332 6.00992L12.3799 5.66992L12.8466 6.47659L12.1332 7.04325L11.5399 7.50992L11.6332 8.26325ZM7.99989 6.08325C6.52656 6.08325 5.33323 7.27659 5.33323 8.74992C5.33323 10.2233 6.52656 11.4166 7.99989 11.4166C9.47323 11.4166 10.6666 10.2233 10.6666 8.74992C10.6666 7.27659 9.47323 6.08325 7.99989 6.08325ZM7.99989 10.0833C7.26656 10.0833 6.66656 9.48325 6.66656 8.74992C6.66656 8.01659 7.26656 7.41659 7.99989 7.41659C8.73323 7.41659 9.33323 8.01659 9.33323 8.74992C9.33323 9.48325 8.73323 10.0833 7.99989 10.0833Z" fill="currentColor"/>
</svg>
