<svg xmlns="http://www.w3.org/2000/svg" viewBox="0 0 166.33 166.33" width="24" height="24">
<g transform="translate(-214.26,-337.9)">
<path fill="#64AD35" d="m260.99,400.74c1.82-3.09 4.02-5.92 6.55-8.43l-21.49-23.57c-5.41 5.17-10.02 11.16-13.65 17.76z"/>
<path fill="#E7B717" d="m313.68,384.09c3.26 1.49 6.28 3.4 9.01 5.65l21.55-23.53c-5.68-4.89-12.11-8.93-19.1-11.92z"/>
<path fill="#C31A23" d="m363.03,391.18-28.56 14.24c1.36 3.18 2.33 6.57 2.86 10.09l31.77-3c-.94-7.52-3.02-14.69-6.07-21.33"/>
<path fill="#489835" d="m332.42,401.29 28.56-14.24c-3.54-6.57-8.05-12.55-13.35-17.72l-21.55 23.53c2.46 2.52 4.59 5.35 6.34 8.43"/>
<path fill="#417F3D" d="m255.32,421.59c0-.64.02-1.29.05-1.92l-31.78-2.84c-.1 1.57-.16 3.17-.16 4.77 0 6.09.76 12.02 2.16 17.68l30.7-8.81c-.63-2.87-.97-5.83-.97-8.88"/>
<path fill="#F8C300" d="m328.42,447.71c-2.26 2.75-4.87 5.2-7.75 7.29l16.78 27.17c6.23-4.22 11.77-9.38 16.43-15.26z"/>
<path fill="#E23623" d="m337.78,421.59c0 3.01-.33 5.94-.95 8.77l30.69 8.82c1.4-5.63 2.15-11.53 2.15-17.59 0-1.5-.05-3-.14-4.49l-31.78 3c.02.5.03.99.03 1.49"/>
<path fill="#F39D19" d="m265.19,448.31-25.4 19.31c4.72 5.82 10.32 10.89 16.59 15.03l16.78-27.14c-2.97-2.04-5.64-4.46-7.97-7.2"/>
<path fill="#2693D1" d="m255.83,415.08c.57-3.59 1.61-7.02 3.05-10.24l-28.56-14.22c-3.15 6.71-5.31 13.98-6.3 21.61z"/>
<path fill="#A4183D" d="M333.55,484.63 316.79,457.5c-3.05 1.72-6.32 3.07-9.78 3.97l5.92 31.39c7.35-1.7 14.29-4.5 20.62-8.23"/>
<path fill="#3CB9E1" d="m335.61,434.8c-1.11 3.27-2.62 6.35-4.46 9.19l25.49 19.22c4.14-5.95 7.41-12.54 9.64-19.59z"/>
<path fill="#E86120" d="m302.49,462.38c-1.94.28-3.93.43-5.94.43-1.62 0-3.23-.1-4.8-.28l-5.91 31.39c3.5.52 7.07.79 10.71.79 4.03 0 7.99-.33 11.85-.96z"/>
<path fill="#DE1931" d="m299.18,380.44c3.54.23 6.96.9 10.2 1.97l11.46-29.79c-6.82-2.41-14.1-3.83-21.67-4.1v31.92z"/>
<path fill="#D80460" d="m287.21,461.75c-3.57-.83-6.97-2.13-10.12-3.83l-16.79 27.15c6.46 3.7 13.52 6.44 21.01 8.03z"/>
<path fill="#1B4469" d="m284.16,382.26c3.31-1.05 6.8-1.68 10.42-1.85v-31.92c-7.68.2-15.04 1.6-21.96 4z"/>
<path fill="#CA9A12" d="m262.39,444.65c-2.02-2.99-3.67-6.27-4.86-9.75l-30.67 8.8c2.32 7.32 5.76 14.13 10.13 20.25z"/>
<path fill="#05659B" d="m271,389.25c2.7-2.13 5.66-3.93 8.84-5.35l-11.54-29.75c-6.87 2.88-13.2 6.79-18.81 11.52z"/>
</g>
</svg>
