<?xml version="1.0" encoding="utf-8"?>
<!-- Generator: Adobe Illustrator 26.0.3, SVG Export Plug-In . SVG Version: 6.00 Build 0)  -->
<svg version="1.1" id="Calque_1" xmlns="http://www.w3.org/2000/svg" xmlns:xlink="http://www.w3.org/1999/xlink" x="0px" y="0px"
	 viewBox="0 0 496.8 141.7" style="enable-background:new 0 0 496.8 141.7;" xml:space="preserve">
<style type="text/css">
	.st0{fill:#FFFFFF;}
</style>
<path class="st0" d="M78.5,50.6l0.2,0.4c0,0,0.2,0,0.1,0.1v0.2l-0.3-0.1L78.4,51c-0.2,0-0.3-0.2-0.3-0.4v-0.1h0.2L78.5,50.6
	 M79.2,51.3L79.2,51.3L79,51.4v-0.2h0.2 M79.2,51.8L79.2,51.8l0.3,0.1v0.3c-0.2,0,0-0.2-0.2-0.2v0.3h-0.2L79,52.1h0.1L79,51.9
	l-0.3-0.2v-0.1H79C79,51.6,79.2,51.8,79.2,51.8z M79.6,52.5L79.6,52.5c0.1,0.2,0.3,0.3,0.2,0.4c0,0.1,0,0.2-0.2,0.2l-0.2-0.2v-0.4
	L79.6,52.5 M80,53.3L80,53.3l-0.3,0.1l0.2-0.2H80V53.3z M80.2,53.6L80,53.7h-0.2v-0.2h0.4 M80.2,54v0.2c0.2,0,0.2,0.2,0.2,0.3
	l0.1,0.6l0.2,0.5v0.5c0,0.2-0.2,0.1-0.2,0.2l-0.2-0.2v-0.5c0-0.3-0.2-0.5-0.3-0.8l-0.2-0.3l-0.1-0.3v-0.3h0.2c-0.1,0.1,0,0.3,0,0.4
	v0.1l0.1-0.2v-0.3L80.2,54 M80.9,57.2L80.9,57.2l-0.2,0.1v-0.2h0.2 M80.6,57.8L80.6,57.8L80.6,57.8l-0.1-0.1h0.1 M79.2,59.7
	L79.2,59.7L79,59.8c0-0.1,0-0.2,0.2-0.2 M77.9,60h-0.2C77.7,60,77.8,59.9,77.9,60z M78.1,60L78.1,60L78.1,60
	C78,60.1,77.9,60.1,78.1,60 M78.6,60v0.2c-0.1,0-0.2-0.2-0.3,0L78.2,60H78.6 M79,62.9c0,0.1,0.2,0.2,0.1,0.4l-0.5,0.1l-0.3-0.1
	l-0.2-0.2l0.2-0.1l0.1-0.1h0.3C78.8,62.7,78.9,62.9,79,62.9 M86.7,65.5c0,0.2-0.2,0.1-0.3,0.2h-0.2v-0.2
	C86.4,65.5,86.5,65.3,86.7,65.5L86.7,65.5z M42.4,66.8V67h-0.3L42,66.9v-0.2h0.2L42.4,66.8L42.4,66.8z M41,67L41,67l-0.2,0.1
	l-0.2-0.2h0.1C40.9,66.8,40.9,66.9,41,67 M46,67L46,67 M40.7,67.3h-0.3c0,0.1,0,0,0,0l0.1-0.2L40.7,67.3 M88.5,67.8V68h-0.2v-0.2
	H88.5 M40.7,68L40.7,68l-0.3,0.1v-0.2L40.7,68L40.7,68 M88.2,68.3C88.2,68.4,88.2,68.5,88.2,68.3L88.2,68.3L88.2,68.3 M87.4,68.9
	v0.3c-0.2,0-0.1,0.3-0.3,0.3h-0.2V69l0.3-0.2L87.4,68.9 M40.6,69L40.6,69L40.6,69 M41,69.2v0.4V69.2L41,69.2 M41.2,69.6L41.2,69.6
	L41.2,69.6 M80.9,71v0.2l-0.2,0.2l-0.1-0.1V71H80.9 M42,71.6L42,71.6l-0.4,0.1v-0.2l-0.2-0.1v-0.2h0.1c0.3,0,0.3,0.2,0.4,0.4
	 M80.6,71.6v0.2c0,0,0,0.2-0.2,0.1h-0.1v-0.2L80.6,71.6L80.6,71.6 M44,71.7C44,71.6,44,71.7,44,71.7 M43.2,72.6l0.1,0.3h-0.2
	c-0.2,0-0.3-0.2-0.3-0.3v-0.2L43.2,72.6 M43.6,73.3L43.6,73.3l0.3,0.4v0.1h-0.2c-0.1-0.1-0.2-0.2-0.3-0.3c0,0-0.2-0.1,0-0.2l0.1-0.2
	L43.6,73.3 M49.5,80.6l0.3,0.3v0.2h-0.1L49.4,81L49,80.6v-0.3h0.2L49.5,80.6 M40.2,91.5c5.9,2.5,9.8-1.1,16.3-1.1
	c6.6-0.2,13.1,2.4,17.6,7.3l-1.4,0.5c-3-4.2-7-6.4-10.5-6.4c-2.8,0-7.1,2.9-12.2,2.9C47.1,94.7,41.9,94.1,40.2,91.5"/>
<path class="st0" d="M88.7,91.6c-5.9,2.5-9.8-1.2-16.3-1.2c-6.6-0.2-13.1,2.4-17.6,7.3l1.4,0.5c3-4.2,7-6.4,10.5-6.4
	c2.8,0,7,2.9,12.2,2.9C81.7,94.7,86.8,94.1,88.7,91.6 M52.1,89.6c-1.2,0.2-5.2,1.2-7.3,1c-4.4-0.4-8.3-2.9-10.4-6.8
	c3.1,2.4,8.5,3.3,10.6,3.9c2,0.5,3.7,1.2,5,1.4c-3-1.1-4.6-2.6-5.3-4.2c-1-2.2-1.6-3.8-2.4-7c1.4,1.3,4,4.3,5,5.3
	C49.1,85.2,49.7,88.7,52.1,89.6"/>
<path class="st0" d="M43.4,86c-2-0.9-5.5-1.3-7.3-2.4c-2.5-1.5-5.7-5-6.4-10.5c1.8,3.5,5.7,6,7.4,7.3c1.6,1.3,4,3.8,5,4.5
	c-1.8-1.7-3.1-3.8-3.7-6.2c0-2.4-0.6-4.5-0.4-7.9c0.7,1.9,3.2,6,3.6,7.4C42.9,81.8,42.1,83.5,43.4,86"/>
<path class="st0" d="M37.5,78.7c-1.8-1.5-6.3-5-7.5-7c-1.6-2.7-2.5-5.7-2.5-8.8c1,3.9,4.5,7,5.8,8.6c1.2,1.8,2.1,4.5,3,5.5
	c-1.1-2.1-1.7-4.4-1.6-6.8c0-2.3,0.3-5,1.2-8c0.8,2.1,1,3.4,1.2,4.8C37.5,72.1,35.7,76.4,37.5,78.7"/>
<path class="st0" d="M33.1,69.8c-1.5-2.8-4.2-5.8-5-8.4c-0.8-2.8-1.3-6-0.4-9.3c0.2,4,2.5,6,3.3,9.4l1.2,5.2c-0.3-3,0.5-5,1.2-6.7
	c0.6-1.2,1.1-2.2,2.8-4.7c0.2,2.6-0.7,6-1,6.7C34.7,63.5,32.4,67,33.1,69.8"/>
<path class="st0" d="M31.7,62c-0.5-2.8-1.7-6.3-1.9-8.7c-0.1-2.1,0.4-7.1,3.3-10c-1.2,2.8-0.7,5.7-0.5,7.8c0.3,3.1-1,5-0.7,6.3
	c0.4-1.3,0.8-3,1.8-4.3c1.6-1.7,2.4-2.2,5.4-5.1c-1.1,2.6-3,6-3.3,6.6c-1.1,1.7-4.1,4.7-4.1,7.3"/>
<path class="st0" d="M33.5,52.5c0.3-3-0.5-4.3,0-6.7c0.4-2,1.8-5.8,4.7-7.7c-1,1.6-1.6,3.4-1.9,5.3c-0.5,3.1-1.2,3.6-1.2,4.9
	c0.9-1.4,1.9-2.6,3.2-3.6c2-1.3,2.8-1.7,4.6-3.5c-0.8,2.4-3.3,5.2-3.8,5.7C36.8,49.3,35.3,49.5,33.5,52.5"/>
<path class="st0" d="M44.9,36.4c-1.5,0.6-4.8,2.5-5.7,3.7c-1,1.1-2.2,3.3-2.6,5c1-1,2.5-1.7,3.7-2.8S43.1,38.4,44.9,36.4 M76.7,89.6
	c1.2,0.2,5.1,1.2,7.2,1c4.4-0.3,8.4-2.9,10.5-6.8c-3.1,2.4-8.5,3.3-10.6,3.9l-5,1.5c3-1.2,4.6-2.7,5.3-4.3c1.1-2.2,1.9-4.6,2.4-7
	l-5,5.3C79.6,85.3,79.1,88.7,76.7,89.6"/>
<path class="st0" d="M85.3,86c2.1-0.8,5.5-1.3,7.4-2.4c2.4-1.4,5.7-5,6.4-10.5c-1.9,3.5-5.8,6-7.4,7.3c-1.7,1.3-4,3.8-5,4.5
	c2.2-2.3,3.4-4.8,3.6-6.2c0-2.3,0.6-4.5,0.5-7.9c-0.7,1.9-3.2,6-3.7,7.4C85.8,81.9,86.6,83.5,85.3,86"/>
<path class="st0" d="M91.3,78.8c1.8-1.6,6.3-5.1,7.4-7.1c1.5-2.5,2.5-5.4,2.5-8.8c-1,3.9-4.4,7-5.7,8.6c-1.2,1.8-2.2,4.5-3,5.5
	c1.6-2.8,1.6-5.2,1.6-6.8c0-2.2-0.4-5-1.3-8c-0.6,1.5-1,3.2-1.1,4.8C91.3,72.1,93,76.5,91.3,78.8"/>
<path class="st0" d="M95.7,69.8c1.4-2.8,4.1-5.8,5-8.4c0.7-2.7,1.2-6,0.3-9.2c-0.2,3.9-2.4,5.9-3.2,9.3l-1.2,5.2
	c0.2-3-0.5-5-1.2-6.6c-0.8-1.7-1.8-3.3-2.8-4.8c-0.2,2.7,0.7,6,1,6.7C94.1,63.6,96.3,67,95.7,69.8"/>
<path class="st0" d="M97.1,62c0.5-2.8,1.7-6.3,1.8-8.7c0.2-2.1-0.3-7.1-3.2-10c1.2,2.8,0.7,5.7,0.5,7.8c-0.4,3.2,0.9,5,0.6,6.3
	c-0.2-1.5-0.8-2.9-1.7-4.2c-1.6-1.8-2.5-2.3-5.4-5.2c1.1,2.6,3,6,3.3,6.6c1,1.8,4.1,4.7,4,7.4"/>
<path class="st0" d="M95.2,52.5c-0.2-3,0.6-4.3,0.1-6.7c-0.4-2-1.8-5.7-4.8-7.6c0.9,1.3,1.6,3,2,5.2c0.4,3.1,1.1,3.6,1.2,5
	c-0.7-1.2-2-2.7-3.3-3.7c-2-1.2-2.7-1.7-4.5-3.5c0.9,2.2,2.2,4.1,3.8,5.8C91.9,49.3,93.5,49.6,95.2,52.5"/>
<path class="st0" d="M83.9,36.4c1.4,0.6,4.7,2.6,5.7,3.7s2.1,3.3,2.6,5c-1-1-2.5-1.7-3.7-2.8C87.3,41.3,85.6,38.5,83.9,36.4
	 M40.3,67.7h0.3H40.3z M67,36C67,36,67,36.1,67,36 M69,36.5c-0.1,0-0.3-0.1-0.4,0v0.1c0.2,0.1,0.3,0.2,0.5,0.1L69,36.5 M70,37.3
	c0.2,0,0.4,0.2,0.5,0v-0.1L70.2,37L70,37.3L70,37.3 M69.7,37.6l-0.1-0.2h-0.2v0.2H69.7L69.7,37.6 M76.3,41.7l0.4,0.2
	c0.2,0,0.2,0.2,0.3,0.2c0.2,0.1,0.3,0.3,0.5,0.2l0.1-0.3v-0.3l-0.2-0.2l-0.3-0.3h-0.7c0,0-0.2,0-0.2,0.2L76.3,41.7L76.3,41.7z
	 M68.5,42L68.5,42l-0.3-0.1v0.2h0.3 M69.7,42.5l-0.1-0.3L69.2,42H69l-0.3-0.2V42l0.2,0.2l0.2,0.2l0.2,0.2h0.4 M68,42.1
	c0,0-0.1-0.1-0.2,0h-0.1l0.2,0.2c0.1,0,0.1,0.3,0.3,0.2v-0.1C68.2,42.4,68.2,42.2,68,42.1 M68.4,42.8L68.4,42.8L68.4,42.8
	 M61.7,42.8h-0.2V43l0.3,0.1L61.7,42.8L61.7,42.8 M61.2,42.8L61.2,42.8l0.1,0.2L61.2,42.8 M68.4,42.9v0.3l0.2,0.1l0.1-0.1V43
	C68.7,42.9,68.5,42.8,68.4,42.9 M62.2,43H62l-0.1,0.2h0.3v-0.1V43z M69.5,43.9L69.5,43.9C69.4,43.9,69.4,44,69.5,43.9 M69.9,44.5
	v-0.3l-0.2-0.1h-0.1v0.3L69.9,44.5 M70.4,44.7v-0.2l-0.2-0.1L70.4,44.7z M69.9,44.5L69.9,44.5l-0.1,0.3l0.3,0.2l0.2-0.2l-0.2-0.1
	v-0.2C70,44.5,70,44.6,69.9,44.5 M55.2,44.6H55l-0.2,0.1v0.1h0.3c0,0,0.1,0,0-0.2 M70.2,45.1l0.3,0.2l0.2-0.2l-0.2-0.2h-0.1
	l-0.1,0.2 M71,45.5l0.1-0.2v-0.1l-0.2-0.1h-0.1v0.3L71,45.5 M71.2,45.7L71.2,45.7l0.2,0.2h0.1l0.1-0.2l-0.1-0.2l-0.3-0.1V45.7
	 M59.9,49.5L59.9,49.5c-0.1,0-0.1,0.1-0.2,0h-0.4c0,0-0.2,0-0.2,0.2v0.1h0.5v-0.1h0.2c0,0.1,0.1,0,0.2,0v-0.2 M76.9,49.5L76.9,49.5
	l0.3,0.1v-0.1H76.9 M76.2,52l0.2-0.1v-0.1h-0.2V52 M76.6,52.2h0.2V52h-0.3L76.6,52.2 M76,52.8c0.2,0,0.2,0.2,0.3,0.3v0.1h0.4
	l-0.2-0.4v-0.6h-0.4l-0.3,0.1l-0.1,0.2v0.1L76,52.8"/>
<path class="st0" d="M75.3,53L75.3,53L75.3,53c0.3,0.3,0.3,0.1,0.4-0.1v0.3h0.3L76,53l-0.1-0.2h-0.3C75.4,52.8,75.4,52.8,75.3,53
	 M76.8,53.3H77v-0.1L76.8,53.3L76.8,53.3 M76.1,53.2l-0.3,0.2v0.1c-0.1,0.1,0,0.1,0,0.2H76l0.2-0.3v-0.2H76.1 M77.1,53.3h0.2
	l-0.1-0.1L77.1,53.3L77.1,53.3"/>
<path class="st0" d="M76.2,53.8h-0.3v-0.1h-0.2c0-0.2-0.1-0.3,0-0.4h-0.2v0.6c-0.3,0-0.5,0-0.6,0.3v0.3H76l-0.2-0.2V54h0.4V53.8
	 M68.6,54.3h0.2l0.1-0.2v-0.2h-0.1c0,0.2-0.3,0-0.4,0.1v0.1l0.2,0.1 M69,54.3v0.3h0.7l0.3-0.3l-0.2-0.2h-0.2L69.5,54
	c0-0.1-0.2,0-0.2,0h-0.2c0,0-0.1,0,0,0C68.9,54,69.1,54.2,69,54.3 M67.7,54.3C67.7,54.2,67.8,54.3,67.7,54.3l0.4-0.1h0.2v-0.1h-0.7
	c-0.1,0.1,0,0.2,0,0.2L67.7,54.3z M76.6,54h-0.2v0.2H77v-0.1h-0.4 M67.3,54.4L67.3,54.4L67.3,54.4C67.4,54.2,67.4,54.3,67.3,54.4
	C67.4,54.3,67.3,54.3,67.3,54.4 M65.1,54.2L65.1,54.2v0.2V54.2C65.1,54.2,65.1,54.2,65.1,54.2 M63.4,54.2h-0.3v0.2h0.2v-0.1
	 M74.1,54.5l-0.2-0.1v0.2h0.2 M63.1,54.5h-0.2v0.2h0.1l0.1-0.1 M65.6,54.5L65.6,54.5L65.6,54.5L65.6,54.5 M74.2,54.6
	c0,0.1-0.1,0.2-0.3,0.2V55h0.7v-0.4C74.5,54.5,74.4,54.6,74.2,54.6 M68.1,55.6c0,0-0.1,0.1,0,0.2l0.1-0.1c0-0.2,0.3-0.3,0.4-0.4
	l0.3-0.2H69v-0.3l-0.2-0.1l-0.2,0.1c0,0.2-0.3,0.1-0.3,0.3L68.1,55.6 M62.6,54.7L62.6,54.7l-0.1,0.2h0.2v-0.2 M65.9,54.8L65.9,54.8
	L65.9,54.8L65.9,54.8L65.9,54.8 M61.7,55.4l-0.1,0.3v0.1h0.1v-0.1V55.4 M66.1,58.6c0,0,0-0.2-0.2-0.1L66.1,58.6 M65.7,58.7
	C65.7,58.7,65.8,58.6,65.7,58.7v-0.2h-0.1L65.7,58.7L65.7,58.7 M65.9,59h0.2v-0.2c0,0-0.1-0.1-0.2,0v0.1 M61.9,59.4L61.9,59.4
	l0.1-0.3l-0.3-0.2L61.5,59v0.1C61.7,59.1,61.7,59.4,61.9,59.4 M62.4,60c0,0,0.2,0,0.2-0.2h-0.2v-0.3l-0.2-0.1l-0.1,0.1v0.2
	c0.1,0,0,0,0,0.1L62,59.6h-0.1c-0.1,0-0.2,0-0.2,0.2l0.2,0.2H62.4 M61.5,60.1c0-0.1,0.1-0.2,0-0.2L61.3,60v0.2L61.5,60.1 M61.8,60.1
	l-0.2,0.1l0.2,0.1c0,0,0.1,0.1,0.2,0c0,0,0.1,0,0-0.1L61.8,60.1 M62.9,60.6h-0.2v-0.2c0,0-0.2-0.1-0.1-0.2h-0.3v0.2l0.3,0.1v0.3
	h-0.2L62.2,61v0.3h0.4l0.2-0.1h0.3l0.1-0.1c0.1-0.2,0-0.3,0-0.4L62.9,60.6 M65.7,60.5h0.2v-0.1c-0.1,0-0.2,0-0.1,0.1 M66.1,60.4
	L66.1,60.4l0.2,0.1C66.3,60.3,66.2,60.4,66.1,60.4 M61.8,60.6L61.8,60.6l-0.4,0.3V61l0.4,0.3L61.8,60.6 M66.2,61.4
	c0,0.2-0.1,0.3,0,0.4c-0.2,0-0.1,0.1-0.1,0.2l0.2,0.1l0.1-0.2v-0.2C66.4,61.7,66.4,61.5,66.2,61.4 M66.3,62.2v0.2l0.5,0.2h0.1v-0.3
	l-0.2-0.1l-0.2-0.1L66.3,62.2 M65.1,63v-0.5c-0.1,0-0.2-0.1-0.1-0.2h0.2V62H65l-0.1,0.2h-0.1l-0.1,0.1c0,0.2,0,0.4,0.2,0.5H65
	 M52.9,65.3v-0.1l0.1-0.5l-0.1-0.4h-0.3l-0.1-0.4h-0.1L52.3,64v0.5l0.2,0.3c0,0.2,0.2,0.3,0.3,0.4c0,0,0,0.1,0.2,0 M63.5,64.5h-0.4
	l-0.3-0.2l-0.1,0.1v0.3c0.1,0.1,0,0.2,0,0.2l0.1,0.2h0.7l0.2-0.4L63.5,64.5 M52.9,65.8h0.2v-0.2L53,65.4h-0.2v0.2L52.9,65.8 M53,66
	v0.2h0.2V66L53,66 M53.2,66.3h0.2h-0.1 M53.3,66.4v0.2h-0.2v0.2h0.2v-0.1l0.2-0.2C53.5,66.5,53.4,66.4,53.3,66.4 M53,67
	C53,67,53.2,67,53,67L53,67C53,66.9,52.8,66.9,53,67 M75.6,68.8h0.2l0.1-0.4c0-0.2-0.2-0.1-0.3,0h-0.1L75.6,68.8 M69.7,68.9l0.2-0.1
	l0.1-0.3h-0.1l-0.4,0.3L69.7,68.9 M65.7,69L65.7,69l0.1-0.2h-0.1V69 M65.7,69.4L65.7,69.4l0.2,0.1l0.1-0.3h-0.1
	C65.7,69.2,65.7,69.2,65.7,69.4 M68.5,69.6c0.2-0.1,0.4-0.1,0.4-0.3h-0.6l-0.2,0.2c0.2,0.1,0.3,0.1,0.4,0 M66.4,69.7
	c0.1,0.1,0.3,0,0.4,0v-0.2h-0.2L66.4,69.7L66.4,69.7 M76.9,73.9l-0.1-0.3c-0.1,0.1,0,0.1,0,0.2 M60.5,77.3h0.2V77l-0.2-0.1l-0.1,0.2
	L60.5,77.3 M62.7,79.2L62.7,79.2l0.1-0.3h-0.1l-0.1,0.2L62.7,79.2"/>
<path class="st0" d="M88.2,70.7c-1.2,2.9-3,5.5-5.2,7.8l-3.2-3.1c3.8-3.9,5.9-9.1,6-14.5h4.4C90.2,64.3,89.5,67.6,88.2,70.7
	 M78.8,82c-4.2,2.8-9,4.3-14,4.4V82c2,0,4-0.3,5.8-1v0.1c0.1,0,0.1,0.1,0.2,0h0.1c0.1,0.2,0.3,0.2,0.4,0.3h0.4l0.2-0.2h0.2l0.3-0.3
	l0.3-0.1c0.2,0,0.3,0,0.4-0.2l0.2-0.1l0.1-0.1l0.3-0.1v-0.1l0.2-0.2l0.4-0.2l0.6-0.4c0.2,0,0.3-0.3,0.5-0.4v-0.1
	c1.4-0.9,2.7-1.9,3.9-3l3.1,3.1C81.2,80.1,80,81.1,78.8,82 M67.3,76.5l0.1,0.2l0.3,0.1c0,0,0.1,0.1,0.1,0.1v0.2
	c0.2,0.1,0.3,0.2,0.3,0.4l0.1,0.2c0,0,0.1,0.1,0,0.2v0.3l-0.1,0.4l0.2,0.4l0.2,0.2c0,0.2,0.2,0.3,0.3,0.3l0.3,0.1l0.3,0.3l0.2,0.3
	l0.2,0.2h0.1c-1.6,0.5-3.3,0.8-5,0.8v-4.4L67.3,76.5 M66.3,75.5L66.3,75.5l0.2,0.2v0.2L64.9,76v-0.6h1.4
	C66.3,75.4,66.1,75.5,66.3,75.5 M64.3,70.2L64.3,70.2L64,70.3c0,0.1-0.2,0-0.2,0h-0.5l-0.4,0.3h-0.1c-1.8-0.3-3.5-1-4.9-2.1L57.4,68
	l3.1-3l0.9,0.6c0.7,0.5,1.5,0.8,2.4,0.9v0.1h0.1c0.1,0,0-0.1,0.1,0v-0.1h0.2h-0.2l0.1,0.2v0.1c0,0,0,0.1-0.1,0h-0.1L63.8,67v-0.2
	l-0.2-0.2l-0.2,0.2V67l-0.2,0.2l0.2,0.2h0.2l0.2-0.3h0.1v0.2l-0.1,0.1c0,0-0.1,0.1,0,0.2v0.1h0.3l0.1-0.2c0.1,0,0.2-0.2,0.3,0
	c0-0.1,0.2,0,0.2-0.2c0.1,0,0,0.1,0,0.2h-0.1l-0.3,0.1v0.2h-0.5V68l0.1,0.2h0.1c0.1,0,0.2,0.2,0.1,0.3l-0.2,0.1h-0.6L63,68.8V70h0.3
	v0.2h0.2l0.4-0.1v-0.2h0.5v-0.2c0,0,0.2,0,0.2-0.2l0.1-0.2l0.2-0.1V69h0.3c0.2-0.2,0.3-0.3,0.5-0.3s0.2,0.2,0.4,0.3h0.4l0.2,0.2
	l0.2,0.1v0.2c0.2-0.1,0.2-0.2,0.1-0.3V69l0.1-0.1l-0.2-0.2h-0.1l-0.2-0.2h-0.1l-0.2-0.1v-0.1h0.5l0.3,0.2h0.1v0.2l0.1,0.3h0.2
	c0,0.2,0.1,0.3,0.3,0.3l0.1-0.1h0.3V69L68,68.8v-0.2c0.2,0,0.4,0.2,0.5,0.3l0.2,0.1l0.3-0.1l0.2-0.1v-0.2l0.4-0.1l0.2-0.2l0.2,0.2
	v0.6h-0.1c-0.1,0.2-0.3,0.2-0.4,0.3c0,0.2-0.3,0.2-0.4,0.2l-0.5,0.1h-0.2l-0.3,0.1L67.8,70v0.2l-0.6,0.2l-0.3-0.1h-0.5v-0.1
	l-0.1-0.3l-0.2-0.2h-0.3l-0.4,0.1h-0.6l-0.2,0.1L64.3,70.2 M63.9,76c-3.8-0.1-7.5-1.6-10.2-4.3l3-3.1c1.1,1,2.4,1.8,3.8,2.3l1.1,0.4
	h-0.1l-0.2,0.2c0,0-0.1,0.2-0.3,0.2l-0.2,0.2v0.3l-0.1,0.2l-0.1,0.4c-0.1,0-0.4,0-0.4,0.3l0.3,0.6l0.2,0.3l0.3,0.3l0.1,0.3l0.2,0.2
	l0.3,0.3h0.2l0.2,0.3h0.9l0.4,0.1h0.6C63.9,75.5,63.9,76,63.9,76z M63.9,81.2c-5.2,0-10.3-2.1-14-5.8l0.7-0.6v0.1l0.5,0.3l0.5,0.1
	h0.6l0.3-0.2l0.6-0.2h0.2l0.5-0.1h0.5l0.4-0.1l0.2-0.2l0.1-0.3c0,0-0.1-0.2,0-0.2l-0.3-0.5c2.7,2,5.9,3.2,9.3,3.3L63.9,81.2
	L63.9,81.2z M63.9,86.4C57.3,86.3,51,83.7,46.4,79l3.1-3c3.9,3.8,9.1,5.9,14.6,6L63.9,86.4L63.9,86.4z M42.9,75
	c-2.8-4.1-4.3-9-4.4-14h4.4c0,2,0.4,4.1,1,6h-0.2c0,0.2-0.1,0-0.2,0l-0.2-0.1l-0.2-0.3l-0.3,0.1l-0.4,0.1v0.3l-0.2,0.1l-0.3,0.1
	h-0.1l-0.2-0.2h0.2l-0.1-0.4l-0.3-0.1l-0.1,0.2c-0.1,0-0.1-0.1-0.2,0h-0.1V67h0.7l-0.2,0.1h-0.3l-0.2,0.3l-0.3,0.2l-0.3-0.1v0.2h0.1
	v0.7l0.2,0.5v0.2v-0.3l-0.2-0.1h-0.2v-0.2h0.1l-0.1-0.2h-0.1c-0.1,0,0,0.1,0,0.2V69l0.1,0.3c0,0,0,0.2,0.2,0.3V70h0.1l-0.1,0.2
	l0.2,0.1h0.1V70l0.1,0.2l0.1,0.2h-0.1l-0.2-0.1v0.2H41v0.2l0.3,0.3h0.2v-0.6l-0.1-0.2c0-0.2,0-0.3-0.2-0.4c0,0-0.1,0,0-0.1h0.1
	l0.2-0.1l0.1,0.1l0.5,0.5l0.3,0.2h0.3V70c0.2,0,0.2,0.1,0.2,0.2l0.3,0.3l0.1,0.2c0.2,0.2,0.3,0,0.5,0.1c-0.1-0.2,0-0.3-0.2-0.4v-0.1
	c0.2,0,0.1,0.1,0.2,0.2v0.4l0.1,0.2c0.1,0.2,0.4,0,0.5,0l0.1,0.2v0.2l0.3,0.5l0.2,0.2c0.2,0,0.2,0.3,0.4,0.3h0.4l0.2-0.1v-0.1h0.1
	l0.1,0.5c0,0.2,0.2,0.3,0.3,0.5c0.2,0,0.3,0.2,0.5,0.3l0.4,0.1l1.4,1.7l-3,3c-1.2-1-2.1-2.2-3-3.5 M40.5,50.6c1.2-3,3-5.6,5.3-7.9
	l3.1,3.2c-3.8,3.8-5.9,8.9-6,14.3h-4.5c0-3.3,0.8-6.5,2-9.6 M49.9,39.4c4.1-2.8,9-4.3,14-4.4v4.4c-5.4,0.1-10.6,2.2-14.5,6l-3.1-3.2
	C47.4,41.2,48.6,40.2,49.9,39.4 M58.1,64.2h0.6v0.1l-0.1,0.1h-0.2L58.1,64.2C58.2,64.3,58.1,64.3,58.1,64.2 M54.3,62.8v-0.2h0.1
	l0.2,0.2l0.3,0.1h0.7l0.3,0.1l0.1,0.4l0.3,0.1v-0.2h0.1l0.2,0.2l0.2,0.1l0.2,0.1h-0.3v0.1l0.1,0.3l0.4,0.3c0,0,0-0.1,0.1,0l0.1,0.2
	h0.3l-0.1-0.4c0.1,0,0-0.2,0-0.2v-0.2h0.1v0.1l0.2,0.2c0,0-0.1,0.1,0,0.2v0.4c-0.1,0,0,0,0,0.1V65H58c0,0.1,0.1,0.2,0,0.2v0.1
	l0.3,0.1l0.1-0.2l0.1-0.1v-0.3c0-0.2,0.3-0.2,0.3-0.3l0.2-0.2l0.1-0.5h0.1v-0.2l0.6,0.8l-3.1,3C55.6,66.1,54.7,64.5,54.3,62.8
	 M53.3,63l-0.2-0.1h-0.3v-0.4h0.1l0.3,0.2h0.1L53.3,63 M49.9,74.3l-0.5,0.5l-0.6-0.5h0.3c0-0.2,0.2-0.2,0.3-0.2
	c0.2,0,0.2,0.1,0.3,0.2h0.1H49.9z M57.9,46c-1.7,0.8-3.3,1.8-4.8,3.1l-3-3.1c3.8-3.6,8.7-5.6,13.9-5.7v4.4c-2,0-4,0.5-6,1.3
	 M57.2,52.6l-0.3,0.2l-3.1-3.1c2.8-2.6,6.4-4.1,10.2-4.2V50c-2.5,0.1-4.9,1.1-6.8,2.7 M53.7,60.3h-1.6V60c-0.1,0,0-0.2,0-0.2
	c0-0.2,0.1-0.2,0.2-0.2l0.4-0.2h0.3c0.2,0,0.3,0,0.4,0.2c0,0,0.1,0.1,0,0.2c0.2,0,0.2,0.2,0.2,0.3L53.7,60.3 M53.3,56.9l0.3,0.2
	l0.5-0.2l-0.2,0.2h-0.3l-0.3,0.2h-0.2c-0.1,0.2-0.2,0.2-0.3,0.2h-0.4L52.1,58L52,58.2l-0.2,0.2l-0.1,0.3L51.5,59v0.3h-0.1v0.3
	c0.1,0.3,0,0.4-0.2,0.5L51,60.3h-2c0.1-3.8,1.7-7.3,4.3-10l3,3.1c-0.7,0.8-1.4,1.8-1.9,2.8h-0.2L54,56.5h-0.3l-0.3,0.2L53.3,56.9
	 M55.8,63.1h-0.2l0.2-0.2V63.1 M57.8,63.7l-0.2-0.1L57.8,63.7L57.8,63.7 M58,64l0.2,0.2C58,64.2,58,64.1,58,64c-0.1,0-0.2,0-0.1-0.2
	L58,64 M59.3,56.7L59,56.6c0-0.1-0.2,0-0.2,0c0-0.1,0-0.1-0.1,0c-0.1-0.1-0.2,0-0.4,0h-0.1c0-0.2-0.2-0.2-0.3-0.3
	c-0.1-0.2-0.3-0.3-0.4-0.3L57,55.8h-0.8L55.8,56l-0.3,0.1c0.4-0.8,1-1.5,1.5-2.1l2.7,2.6v0.1h-0.2l-0.1,0.1v-0.1 M63.5,54.4h0.2
	l0.2-0.1H64v0.9c-0.5,0-0.9,0.1-1.4,0.3c0-0.2,0.2-0.4,0-0.5l-0.2,0.1l-0.2,0.4l-0.1,0.3c0,0-0.2,0.1-0.1,0.2l-0.3,0.3h-0.2
	c-0.2,0,0,0.3-0.3,0.3c0,0,0-0.1-0.1,0h-0.3l-3.2-3.1l0.2-0.2c1.8-1.5,4-2.4,6.3-2.5V54h-0.5l-0.1,0.2L63.5,54.4 M48.3,60.3h-4.5
	c0.1-5.2,2.2-10.2,5.9-13.8l3.1,3.2C50,52.6,48.4,56.3,48.3,60.3 M46.6,65.3v1.5L46.2,67h-0.3c-0.2,0.2-0.4,0.1-0.6,0.2h-0.4
	c-0.7-2-1-4.1-1-6.2h4.4c0,0.7,0,1.4,0.2,2h-0.2c-0.2,0-0.4,0-0.5,0.2l-0.3,0.6h-0.2v0.3c-0.2,0-0.2,0.1-0.3,0.2v0.3l-0.2,0.3
	l-0.1,0.2v0.2 M50.3,61.8l-0.1,0.6l-0.1,0.3v0.4c0.1,0,0.2,0,0.3,0.2c0,0,0,0.2-0.2,0.3h-0.4l-0.3-0.2h-0.2
	c-0.1-0.8-0.2-1.6-0.2-2.4h1.7l-0.1,0.4C50.6,61.6,50.3,61.6,50.3,61.8 M52.3,70.8l0.2-0.1l0.2-0.1l0.2-0.2v-1
	c0-0.2-0.2-0.3-0.3-0.4l-0.2-0.5c-0.2,0,0-0.3-0.2-0.4v-0.6c0-0.2,0.3,0,0.3-0.3l0.2-0.1V67c-0.1-0.1-0.2,0-0.2,0
	c-0.1,0,0-0.2-0.2-0.1V67l-0.1,0.1v-0.7l-0.1-0.1L52,66.2c0,0-0.1-0.1,0-0.2h0.1c0-0.1,0-0.2-0.2-0.2v-0.6h-0.2
	c-0.2,0-0.3,0.2-0.4,0l0.1-0.2h0.3v-0.3l-0.4-0.4l-0.1-0.2L51.1,64l-0.2-0.2l-0.1-0.2v-0.3c0.1-0.2,0-0.3-0.1-0.4v-0.4
	c0-0.1,0-0.2,0.2-0.2h0.5l0.3-0.3v-0.7h0.8v-0.1l0.2-0.2h1v0.2h0.1l0.2,0.1l-0.2,0.2V62h-0.3l-0.2,0.2h-0.2
	c-0.2-0.3-0.3-0.6-0.6-0.6v1.5L52.2,63H52v0.4l0.3,0.2h0.2v0.2h0.3l0.1,0.2c0,0,0.1,0.1,0.2,0L53,63.9h0.1v-0.1
	c0.2,0,0.3-0.1,0.3-0.2v-0.2h-0.2l-0.1,0.2l-0.2,0.1v-0.6h0.5l0.1-0.2V63c0,0.1,0,0.3-0.2,0.3h0.2c0.1,0.1,0.2-0.1,0.2,0h0.1
	c0.5,1.8,1.4,3.4,2.6,4.7l-3,3h-1C52.3,71,52.4,71,52.3,70.8 M65,67C65,67,65.1,67,65,67h-0.2v-0.1h-0.1l-0.1-0.2v-0.2h0.6v0.2
	L65,66.8V67 M66.5,66.2L66.5,66.2l-0.1,0.3l-0.2,0.2h-0.3l-0.2-0.1v-0.2c-0.1-0.1-0.2-0.2-0.2-0.3h-0.1v-0.4h0.2v0.2l0.2,0.2
	l0.1,0.2h0.2c0.2,0,0.1,0,0.2-0.2v-0.6l-0.1-0.2v-0.7c0.1,0,0.2,0,0.2,0.2v0.7h0.4v0.1l-0.1,0.1l-0.2,0.1v0.3 M64.4,56.1h0.3v0.2
	h-0.4c-0.1-0.2-0.3-0.1-0.4-0.1h-0.1l-0.1,0.1v0.3l0.3,0.3l0.3,0.2l0.1,0.2h0.3l0.5,0.1h0.2l0.2,0.2l0.3,0.2l0.2,0.5h0.2l0.3,0.1
	c0,0,0.1-0.1,0.2,0l-0.2,0.3v0.4l0.3,0.1v0.2c0,0.2-0.4,0.1-0.3,0.3v0.1l-0.2,0.3v0.2h0.4l0.1,0.2l0.2,0.4l0.2,0.2l0.2-0.1v-0.2
	c0.1,0.1,0,0.1,0,0.1v0.2l-0.2,0.2h0.5l0.4-0.2h0.1v0.3h0.1v0.1h-1.2c-0.1,0.2,0,0.4,0.2,0.5l0.1,0.1l-0.1,0.2v0.5l-0.2,0.3
	l-0.1,0.2h-1.2l-0.3,0.3l-0.1,0.3l-0.2,0.2v0.3l-0.1,0.4L65.1,65l-0.2,0.2l-0.1,0.3h-0.4c-1.2,0-2.4-0.4-3.3-1.2h0.2l0.3-0.2
	l0.3-0.1h0.6c0.1-0.1,0.2,0,0.4,0l0.4-0.2l0.2-0.3h-0.1l0.2-0.1v-0.2c0,0,0.1,0,0-0.2l0.2-0.2l0.2-0.4c0-0.1,0.2-0.2,0.1-0.4
	l-0.2-0.1c0,0,0.2,0,0.2-0.2v-0.1c-0.3-0.2-0.5-0.3-0.8-0.3h-1.4v0.3c-0.1,0,0,0.1,0,0.2l-0.1,0.3v0.4l-0.1,0.2l-0.1-0.1
	c0-0.1,0.1-0.1,0-0.2l-0.4,0.2l-0.1,0.2L61,63l-0.2,0.1c0,0.1,0,0.3-0.2,0.4c0,0-0.1,0,0,0l-0.2,0.2c-0.2-0.3-0.4-0.5-0.5-0.8
	l0.2-0.2h0.1l0.2-0.2h0.1v0.2c0.1,0,0.2,0.2,0.3,0l0.1-0.1l0.1-0.3l0.1-0.3l0.3-0.4l0.2-0.2l-0.1-0.1l-0.2-0.1v-0.6
	c0,0,0.1-0.1,0-0.2l-0.2-0.2c0,0,0,0.1-0.1,0l-0.1,0.2v0.3h0.4l-0.4,0.2v0.4l-0.1,0.3l-0.2,0.2h-0.1v-0.1c0,0,0-0.2-0.2-0.2H60
	l-0.1,0.1c0,0-0.2,0.1-0.2,0h-0.3l-0.2,0.1h-0.5l-0.1-0.1h-0.2v0.2H58v-0.1c0.2-0.2,0.4-0.1,0.5-0.3V61l0.3-0.5v-0.1h0.5l0.2,0.2
	h0.2v-0.4c0.2,0,0.2,0.2,0.3,0.3v0.2h-0.1l-0.1,0.2l-0.1,0.3H60c0.1,0,0-0.1,0-0.2v-0.3c0.2,0,0.1,0.2,0.2,0.2v0.4h0.7v-0.5
	c0-0.2,0.2-0.3,0-0.5L61,60h0.6l0.2-0.1l0.1-0.3l-0.1-0.1h-0.5l-0.1,0.1h-0.1v-0.2l0.3-0.2c0-0.1,0-0.2,0.2-0.3h0.2l0.1-0.4l0.2-0.2
	h0.4l0.6-0.3l0.2-0.1l0.3-0.3l0.1-0.2c0,0,0.1,0,0-0.1v-0.4c-0.1,0,0-0.2,0-0.2c0-0.1-0.2-0.2,0-0.3h0.2V56h-0.3v0.1h-0.1
	c0,0.1,0,0-0.1,0V56l1-0.2c0,0.2,0.1,0.3,0,0.4 M69,66.9l0.2-0.2v0.1c0.1,0.1,0,0.2,0,0.2L69,66.9L69,66.9 M68.6,68.2l-0.2,0.2h-0.1
	l0.1-0.2V68l0.1-0.2h0.1v-0.4l0.1-0.2v0.2H69c0,0,0.2,0,0.2-0.2h0.4c0.1-0.1,0.3,0,0.4,0c0,0.1,0.1,0.2,0,0.2
	c-0.1,0.2-0.3,0.2-0.5,0.2l-0.3,0.1L69,67.8l-0.3,0.3L68.6,68.2 M64.9,50.8c2.4,0.1,4.7,1,6.4,2.7l-0.1,0.1h-0.1l-0.2-0.1h-0.1
	c0-0.1,0.1-0.2,0-0.2l-0.4,0.1l-0.3,0.4H70L69.8,54v0.1c0.1,0,0.2,0.1,0.2,0c0,0.1,0,0.2,0.2,0.2l0.3-0.2v0.1l-0.8,0.9
	c0,0-0.1-0.1-0.2,0l-0.2,0.1l-0.4,0.3l-0.2,0.2h-0.1L68.5,56v0.2l-0.2,0.1h-0.2c-0.1,0-0.3,0.1-0.4,0l-0.2-0.2l-0.3-0.2l-0.4-0.1
	c0,0-0.3,0-0.4,0.2H66l0.2-0.2l0.1-0.1c0.2-0.2,0.3-0.2,0.5-0.2l0.3-0.2c0.2-0.1,0.1-0.3,0.2-0.4v-0.3l-0.2-0.2l-0.3,0.2
	c0,0.1-0.3,0-0.3,0.2l-0.4,0.4v0.1l-1.2-0.1L64.9,50.8L64.9,50.8z M64.9,45.6c3.8,0.1,7.4,1.6,10.1,4.2l-3.1,3.1
	c-1.9-1.7-4.4-2.7-7-2.8V45.6z M72.4,46.7H73c0.2,0.1,0.1,0.3,0.3,0.3v-0.1h0.2v0.3c0.2,0,0.2,0.2,0.3,0.3v0.2l-1.6-1H72.4
	 M64.9,42.5l0.2-0.2l0.3-0.1V42h-0.1c-0.1,0-0.3,0-0.3-0.2v-1.5c3,0.1,5.9,0.8,8.6,2.1h-0.2c0.1,0.2,0,0.3,0,0.4h-0.2V43
	c-0.1,0,0,0.1,0,0.2h0.1V43l0.1,0.2l0.3,0.1c0,0.2,0.2,0.2,0.3,0.3c0.1,0,0,0.3,0.2,0.4l0.1,0.4v0.4l0.4,0.2v0.1
	c0.2,0,0.1,0.1,0.1,0.2v0.3c-0.1,0,0,0.2,0,0.2v0.3l0.2,0.2v0.2l0.1,0.4l0.2,0.1l0.4-0.1l0.1-0.2c0.2,0,0.4-0.2,0.5,0l0.2,0.1
	l0.5,0.6v0.2l-1,1.2c-0.2,0-0.2-0.2-0.2-0.2v-0.3H76V48l-0.1-0.2L75.8,48v0.1l-0.2-0.3l-0.1-0.2v-0.1c-0.1-0.1,0-0.3-0.2-0.4
	l-0.4-0.3h-0.3c-0.2,0-0.2-0.1-0.3-0.2c0,0,0-0.2-0.2-0.2L73.9,46l-0.3-0.2c0-0.2-0.2-0.2-0.2-0.3H73l0.2,0.4l0.3,0.4l0.1,0.3h-0.4
	l-0.1-0.3l-0.2-0.2h-0.1V46l-0.1-0.2h-0.2L72.3,46l0.2,0.1h0.1v0.1h-0.2c-0.2,0-0.3-0.1-0.4,0v0.2c-0.1,0,0-0.2-0.2-0.2V46
	c-0.2,0-0.2,0.1-0.3,0.2v0.1c-2.1-1.1-4.4-1.6-6.7-1.7v-2.2L64.9,42.5z M64.9,38.9h0.5c0.2,0,0.4,0,0.4,0.2l0.3,0.1h0.3
	c0.1,0,0.1,0.3,0.3,0.3h0.6v-0.1L67,39.2l-0.2-0.3v-0.4c-0.2,0-0.2-0.2-0.2-0.2h0.2c0.2,0,0.3,0.3,0.6,0.3l0.4-0.2
	c0.2,0,0.4,0,0.6-0.2h0.8V38h0.6l-0.2-0.2c0-0.1-0.2,0-0.2-0.2h-0.3l-0.2-0.1l-0.3-0.1h-0.4L68,37.6l-0.7,0.2c-0.1,0-0.2,0-0.3,0.2
	h-0.4v0.2l-0.1-0.1L66.2,38l-0.6,0.1l-0.2,0.2h-0.3l-0.3,0.2v-3.4c6.5,0.1,12.8,2.7,17.5,7.2L79.6,45v-0.2c-0.2,0-0.2-0.2-0.3-0.2
	s-0.3,0-0.4-0.2v-0.2l-0.2-0.3v-0.2c-0.2-0.2-0.4-0.3-0.5-0.6l-0.3-0.3c-0.2,0-0.3-0.2-0.5-0.3h-0.3c0-0.2-0.2-0.3-0.3-0.5h-0.3
	l-0.4-0.1c-0.3-0.1-0.5-0.3-0.8-0.2c-0.2,0.1-0.5,0-0.6,0.2L74.4,42c-2.9-1.6-6.2-2.4-9.5-2.5V39L64.9,38.9z M76.5,51.3
	C76.5,51.3,76.4,51.3,76.5,51.3l0.1,0.3c0.5,0.5,0.9,1.1,1.3,1.7c-0.1,0.1-0.3,0-0.4,0.2v0.3L77.3,54v0.2h0.3l0.3,0.2h0.3
	c0,0.2,0.1,0.3,0.2,0.3l0.3,0.2l0.5,1.6v0.6L79,57.4l-0.2,0.2l-0.1,0.3l-0.3,0.4h-0.5v-0.4l0.1-0.3l0.2-0.3c0,0-0.1-0.1,0-0.2v-0.3
	H78l-0.2-0.3h-0.1c-0.1-0.1-0.3-0.2-0.5-0.2H77l-0.3,0.4l-0.1,0.1c-0.1,0.1-0.2,0.4-0.4,0.4l-0.3-0.3l-0.1-0.2v-0.2h0.1v0.2l0.1,0.2
	l0.4-0.1v-0.2c-0.2-0.1-0.3-0.3-0.5-0.2c-0.1,0,0-0.2-0.2-0.2h-0.1V56c-0.2,0,0-0.2-0.2-0.3v-0.1l-0.6-0.3l-0.4-0.1l-0.2-0.1h-0.4
	l-0.8-1h0.3c0,0,0.2,0,0.1-0.1c0-0.2-0.3,0-0.3-0.2L73,54l-0.6-0.7l3.1-3.1L76.5,51.3 M79,45.1h0.4l-0.5,0.2L79,45.1 M77.7,49.5
	l0.3,0.1v-0.2h0.5v0.3c0,0.2,0.3,0.3,0.4,0.5l0.5,0.2c0,0.1,0.3,0.1,0.3,0.3c0.1,0,0.3,0,0.3,0.2c0.1,0,0.1,0.1,0.2,0h0.3l0.3,0.3
	l0.2,0.2l0.1,0.1l0.4,0.5l0.1,0.2l0.3,0.3l0.2,0.1v0.3h0.5l0.3-0.1l0.2-0.1l0.2-0.2c1.1,2.5,1.7,5.1,1.8,7.8h-4.5
	c0-0.8,0-1.6-0.2-2.3l0.2-0.4l0.1-0.4v-0.8c-0.3,0-0.4,0.2-0.6,0.4v0.1L80,57.1v0.1l-0.2,0.3v0.2c0,0.2-0.1,0.2-0.2,0.3v0.3
	l-0.2,0.3v0.8h0.3l0.1,0.9h-3.1V60H77l0.2-0.2c0.2-0.1,0.4-0.1,0.4-0.4c-0.1-0.1-0.2-0.2-0.2-0.4l0.2-0.1h0.1l0.3-0.1h0.2l0.6-0.1
	c0,0,0.2,0,0.1-0.2v-0.1l0.3-0.3c0.2,0,0.3-0.3,0.4-0.4l0.2-0.4V57h0.1v-0.4c0,0,0-0.2,0.2-0.2l0.2-0.1v-0.2L80,56l0.1-0.2v-0.2
	h-0.4c-0.1-0.1,0-0.2,0-0.4v-0.4l-0.1-0.2l-0.1-0.4v-0.1c0-0.2-0.3-0.3-0.4-0.5H79c0-0.1-0.2,0-0.2-0.2l-0.2-0.3V53l0.3-0.2v-0.2
	h-0.5l0.1-0.1V52c0,0,0-0.2-0.2-0.2l-0.2,0.1h-0.2l-0.1-0.3l-0.2-0.3V51c0-0.2-0.3,0-0.3-0.3L77,50.3l-0.3-0.2h-0.1
	c0,0-0.2,0-0.1-0.1v-0.5l-0.2-0.1l0.7-0.8c0.2,0.1,0.2,0.3,0.3,0.4c0.1,0.2,0.3,0,0.4,0.2v0.1h-0.1 M71.6,54.1l0.1-0.2h0.2l-0.1,0.3
	v0.1c0.1,0.1,0.2,0,0.4,0l0.2,0.3l-0.1,0.1l0.2,0.2h0.1l0.3,0.5h-0.2v0.5l-0.4-0.1l-0.1,0.1v0.3l0.2,0.4h-0.3c0-0.2-0.2-0.2-0.3-0.3
	h0.4V56L72,55.8v-0.3l0.1-0.1c0-0.1,0-0.3,0.2-0.3V55c0-0.1,0-0.3-0.2-0.3h-0.4L71.5,55c-0.1,0-0.1,0.2-0.3,0.2h-0.4V55l0.5-0.5h0.5
	v-0.3 M70.6,65.8h1l0.3,0.3v0.2c-0.2,0-0.1,0.2-0.3,0.2l-0.2-0.2l-0.1-0.2h-0.8v-0.2c-0.1-0.2-0.2-0.3,0-0.4c0,0,0-0.1,0.1,0h0.1
	L70.6,65.8 M74.8,69.7L74.6,70l-0.1,0.2v0.3h-0.7l-0.4,0.2H73l-0.2-0.2h-0.4l-0.4-0.1c0,0-0.3,0-0.4-0.2h-0.4L70.8,70l-0.3-0.1
	L70,69.8v-0.2h0.5c0,0-0.2-0.1-0.1-0.2v-0.1c0.1,0,0,0,0,0l0.3,0.4h0.5l0.6,0.3h0.5l0.3,0.1h0.1l0.3,0.2l0.5,0.1l0.5-0.1l0.1-0.1V70
	l0.2-0.2l0.1-0.2l0.1-0.4l0.1-0.1v-0.4l0.1-0.4l0.1-0.2l0.1-0.2V67c-0.1-0.1-0.2-0.2-0.2-0.3v-0.2h-0.4l-0.4,0.1l-0.2,0.1v0.2
	L73.5,67c0,0.2,0,0.3-0.2,0.4H73l-0.2,0.2l-0.5-0.1v-0.2l0.3-0.1H73c0,0,0.2,0,0.3-0.2l0.1-0.3l0.2-0.2H74l0.3-0.5l0.1-0.1l0.2-0.3
	l0.1-0.3c0.1-0.1,0.3-0.2,0.3-0.4v-0.3l0.1-0.2l0.1,0.1v0.4h0.4l0.2-0.1v-0.2c0.1,0,0-0.2,0.2-0.2h0.2c0.1,0.2,0.3,0.2,0.5,0.1
	c0.1,0,0.3,0,0.4-0.2c0.3,0,0.5,0,0.7-0.2h0.6V64c0.1-0.2,0-0.3,0-0.4l-0.1-0.2h-0.1c-0.1-0.2-0.3-0.2-0.3-0.4l-0.3-0.1
	c0-0.2-0.2,0-0.3-0.1l-0.1-0.3v-0.2c-0.1-0.2-0.4-0.3-0.4-0.5l-0.1-0.3v-0.1l-0.3-0.3V61h3.2c0,3.7-1.5,7.3-4,10v-0.8l-0.2-0.4v-0.3
	l-0.2-0.3h-0.3l-0.3,0.4v0.1 M75.6,77.5c0-0.2,0.1-0.2,0.2-0.3v-0.6h-0.1c0-0.2,0-0.3-0.2-0.4l0.2-0.3l0.3-0.4c0,0,0-0.2,0.2-0.2
	l0.1-0.3h0.1v-0.4l-0.3-0.3L75.9,74l-0.2-0.1l-0.2-0.1c-0.2,0-0.2-0.2-0.4-0.3v-0.6l0.1-0.2v-0.2c0.2,0,0.3-0.2,0.4-0.3l1,1.1
	c0,0.2-0.1,0-0.2,0.2v0.1l0.3-0.1v-0.1l0.5,0.5v0.2l0.1,0.1l0.2,0.3v0.2l0.2,0.3h0.2l0.3,0.1h0.2l0.3,0.3l-3.1,2.5v-0.5 M79.1,74.2
	L79,73.7l-0.1-0.4c0-0.2,0-0.4-0.2-0.6v-0.3l-0.3-0.1c-0.1,0-0.3-0.2-0.5-0.1h-0.1v0.3l-0.1,0.6h-0.1l-1.5-1.4
	c2.7-2.9,4.3-6.8,4.3-10.8h4.5c0,5.2-2.1,10.2-5.7,14L79,74.6L79.1,74.2 M85.7,46.4c2.8,4.1,4.3,8.9,4.4,13.9h-4.5
	c-0.1-2.9-0.7-5.8-1.9-8.4l0.2-0.1v-0.7L83.8,51l-0.2-0.4c0-0.1-0.2-0.1-0.2-0.3l-0.2-0.2c-0.2-0.1-0.3-0.2-0.3-0.4l-0.2-0.4
	c-0.2,0-0.2-0.2-0.3-0.2c-0.1-0.2,0-0.4-0.2-0.4s-0.3-0.2-0.4-0.3l-0.1-0.2c-0.2-0.1-0.3-0.2-0.4-0.3c0-0.2-0.2-0.4-0.3-0.5
	l-0.4-0.3l-0.4-0.4l-0.5-0.6V46l3-3c1.1,1,2.1,2.2,3,3.5 M88.8,50.5C83,37,67.3,30.8,53.7,36.6c-6.2,2.7-11.2,7.7-13.9,13.9
	c-3.6,8.2-2.6,17.7,2.5,25c2.9,4.3,7,7.6,11.7,9.7c11.7,5.1,25.4,1,32.4-9.6C91.4,68.2,92.3,58.8,88.8,50.5 M108.7,58h4.1v25
	c0,5.6,3.5,8.5,7.9,8.5c4.3,0,7.8-2.9,7.8-8.5V58h4v25c0,7.8-4.8,12.5-11.8,12.5c-7.1,0-12-4.7-12-12.5V58z M164.2,95h-4.1
	l-15.7-29.1V95h-4.1V58.1h4.1l15.7,29.1V58.1h4.1V95z M175.9,62v29h7.9c4.4,0,7.8-2.9,7.8-8.5v-12c0-5.5-3.4-8.3-7.8-8.4L175.9,62
	L175.9,62z M183.8,58c7,0,11.9,4.8,11.9,12.6v12c0,7.7-4.9,12.4-12,12.4h-11.9V58H183.8z M247.1,62h-8.5v12.4h8.5
	c4.2,0,6.5-2.7,6.5-6.2s-2.3-6.1-6.5-6.1 M238.6,78.3V95h-4V58h12.5c7.9,0,10.7,5.3,10.7,10.2c0,4.5-2.4,9.1-8.7,10L259,95h-4.8
	l-9.9-16.7h-5.8H238.6z M215.6,62h-8.5v12.4h8.5c4.2,0,6.5-2.7,6.5-6.2s-2.3-6.1-6.5-6.1 M207.1,78.3V95h-4V58h12.5
	c7.9,0,10.7,5.3,10.7,10.2c0,4.5-2.4,9.1-8.7,10l9.9,16.8h-4.7L213,78.3H207.1z M274.8,61v7.2c0,2.7,1.2,3.9,2.8,3.9
	c1.9,0,3-1.2,3-4V61h1.6v7c0,3.8-2,5.3-4.6,5.3c-2.5,0-4.4-1.4-4.4-5.1V61H274.8L274.8,61z M284.8,66.8v-2.4h1.4v1.4h0.1
	c0.4-0.8,1.4-1.6,2.9-1.6c1.2,0,3,0.7,3,3.7v5.2h-1.5v-5c0-1.4-0.5-2.6-2-2.6c-1,0-1.9,0.8-2.2,1.6v6h-1.7
	C284.8,73.1,284.8,66.8,284.8,66.8z M296.6,62c0,0.5-0.4,1-1,1c-0.6,0-1-0.4-1-1c0-0.6,0.4-1,1-1S296.6,61.4,296.6,62z M294.8,73
	v-8.7h1.6V73H294.8z M300.9,62v2.4h2.3v1.2h-2.3v4.7c0,1.1,0.3,1.7,1.2,1.7l1-0.1v1.2l-1.4,0.2c-0.8,0-1.3-0.2-1.7-0.7
	c-0.5-0.4-0.6-1.2-0.6-2.2v-4.8h-1.4v-1.2h1.4v-2L300.9,62L300.9,62z M305.6,69c0,2.2,1.4,3,3,3c1.1,0,1.8-0.1,2.4-0.4l0.3,1.2
	c-1,0.4-2,0.6-3,0.5c-2.6,0-4.2-1.8-4.2-4.4s1.5-4.7,4-4.7c3,0,3.7,2.5,3.7,4.1V69C311.9,69,305.6,69,305.6,69z M310.4,68
	c0-1-0.5-2.6-2.2-2.6c-1.6,0-2.3,1.4-2.5,2.5L310.4,68L310.4,68z M321.3,60.4v10.5l0.1,2.2h-1.4v-1.5h-0.1c-0.5,1-1.6,1.7-3,1.7
	c-2,0-3.7-1.8-3.7-4.4c0-2.9,1.8-4.7,3.9-4.7c1.3,0,2.2,0.6,2.6,1.3v-5.2h1.6L321.3,60.4z M319.8,68l-0.1-0.7
	c-0.2-1-1.1-1.9-2.3-1.9c-1.6,0-2.6,1.5-2.6,3.4c0,1.8,0.9,3.2,2.6,3.2c1,0,2-0.7,2.3-1.9L319.8,68L319.8,68z M327.8,73.1V61h1.7
	l4,6.1c0.8,1.3,1.4,2.6,2,4h0.1l-0.2-5V61h1.5v12.1h-1.6l-3.8-6.1l-2.3-4l0.1,5v5.2L327.8,73.1L327.8,73.1z M344.4,73.1l-0.1-1
	c-0.6,0.6-1.5,1.2-2.7,1.2c-1.8,0-2.7-1.2-2.7-2.5c0-2,1.9-3.2,5.2-3.2v-0.2c0-0.7-0.2-2-2-2c-0.7,0-1.6,0.2-2.2,0.6l-0.4-1
	c0.8-0.5,1.8-0.8,2.9-0.8c2.7,0,3.3,1.8,3.3,3.6V71l0.1,2.1H344.4L344.4,73.1z M344.1,68.7c-1.7,0-3.7,0.3-3.7,2
	c0,1,0.7,1.4,1.5,1.4c0.9,0,1.7-0.5,2-1.4l0.2-0.5V68.7z M350.1,62v2.4h2.3v1.2h-2.3v4.7c0,1.1,0.3,1.7,1.2,1.7l0.9-0.1v1.2
	l-1.3,0.2c-0.8,0-1.4-0.2-1.7-0.7c-0.5-0.4-0.7-1.2-0.7-2.2v-4.8h-1.3v-1.2h1.3v-2l1.6-0.5V62z M355.9,62c0,0.5-0.4,1-1,1
	c-0.6,0-1-0.4-1-1c0-0.6,0.4-1,1-1S355.9,61.4,355.9,62z M354.1,73v-8.7h1.6V73H354.1z M366.1,68.7c0,3.2-2.2,4.6-4.3,4.6
	c-2.4,0-4.2-1.7-4.2-4.4c0-3,1.9-4.7,4.3-4.7C364.4,64.2,366.1,66,366.1,68.7z M359.1,68.7c0,2,1.2,3.4,2.7,3.4s2.7-1.4,2.7-3.3
	c0-1.5-0.8-3.4-2.6-3.4c-2,0-2.7,1.7-2.7,3.4L359.1,68.7z M368.1,66.8l-0.1-2.4h1.4v1.4h0.1c0.5-0.8,1.5-1.6,3-1.6
	c1.1,0,3,0.7,3,3.7v5.2H374v-5c0-1.4-0.5-2.6-2-2.6c-1,0-1.9,0.8-2.1,1.6l-0.1,0.8V73h-1.6L368.1,66.8L368.1,66.8z M377.9,71.5
	c0.5,0.3,1.3,0.6,2.1,0.6c1.2,0,1.7-0.5,1.7-1.3c0-0.7-0.4-1.1-1.6-1.6c-1.6-0.5-2.3-1.4-2.3-2.4c0-1.4,1.1-2.6,3-2.6
	c0.9,0,1.7,0.3,2.1,0.6l-0.4,1.1c-0.3-0.2-1-0.5-1.7-0.5c-1,0-1.5,0.5-1.5,1.2s0.5,1,1.7,1.5c1.5,0.6,2.2,1.3,2.2,2.6
	c0,1.5-1.1,2.6-3.2,2.6c-0.9,0-1.7-0.2-2.5-0.6C377.4,72.7,377.9,71.5,377.9,71.5z M399.4,67c0,4.1-2.6,6.3-5.7,6.3
	c-3.2,0-5.4-2.4-5.4-6.1c0-3.9,2.4-6.4,5.6-6.4C397.2,60.8,399.4,63.3,399.4,67L399.4,67z M390,67.1c0,2.6,1.4,5,3.8,5
	c2.5,0,4-2.3,4-5c0-2.5-1.3-5-4-5C391.2,62.1,390,64.5,390,67.1z M412.5,61.9c-0.4-0.3-1-0.5-1.7-0.5c-1.7,0-2.2,1.2-2.2,2.6v0.4h5
	v8.7h-1.5v-7.5h-3.5v7.5h-1.5v-7.5h-3.6v7.5H402v-7.5h-1.2v-1.2h1.2v-0.3c-0.1-1.1,0.3-2.2,1-3c0.6-0.6,1.5-0.9,2.3-0.8
	c0.5,0,1.2,0.3,1.5,0.4l-0.6,1.3c-0.3-0.1-0.7-0.3-1.1-0.3c-0.5,0-0.9,0.2-1.2,0.4c-0.4,0.5-0.6,1.3-0.6,2v0.4h3.7V64
	c0-2.3,1.4-3.8,3.8-3.8c0.8,0,1.7,0.3,2.2,0.6l-0.5,1.2L412.5,61.9z M422.5,72.8c-0.8,0.3-1.6,0.5-2.5,0.5c-2.3,0.1-4.3-1.7-4.4-4
	c0-0.1,0-0.3,0-0.4c0-2.7,1.9-4.7,4.7-4.7c1,0,1.8,0.3,2.2,0.5l-0.3,1.2c-0.4-0.2-1-0.4-1.9-0.4c-2,0-3,1.5-3,3.3c0,2,1.2,3.2,3,3.2
	c0.7,0,1.4-0.1,2-0.4C422.3,71.6,422.5,72.8,422.5,72.8z M425.2,69c0,2.2,1.4,3,3,3c1.1,0,1.8-0.1,2.4-0.4l0.3,1.2
	c-1,0.4-2,0.6-3,0.5c-2.6,0-4.2-1.8-4.2-4.4s1.5-4.7,4-4.7c2.9,0,3.7,2.5,3.7,4.1V69C431.4,69,425.2,69,425.2,69z M429.8,68
	c0-1-0.4-2.6-2.2-2.6c-1.6,0-2.3,1.4-2.4,2.5L429.8,68L429.8,68z M437.2,73.1v-7.5h-1.1v-1.2h1.2V64c0-1.2,0.2-2.3,1-3
	c0.6-0.5,1.3-0.8,2.1-0.8c0.6,0,1,0,1.4,0.2l-0.3,1.2l-1-0.2c-1.3,0-1.7,1.2-1.7,2.5v0.5h2.1v1.2h-2v7.5h-1.6L437.2,73.1z M450,68.7
	c0,3.2-2.2,4.6-4.3,4.6c-2.4,0-4.2-1.7-4.2-4.4c0-3,1.9-4.7,4.3-4.7C448.3,64.2,450,66,450,68.7z M443,68.7c0,2,1.2,3.4,2.7,3.4
	s2.7-1.4,2.7-3.3c0-1.5-0.8-3.4-2.6-3.4c-2,0-2.7,1.7-2.7,3.4L443,68.7z M452,67.1v-2.7h1.3v1.7h0.1c0.4-1.1,1.4-1.9,2.4-1.9h0.5
	v1.6h-0.6c-1,0-1.9,0.8-2,2l-0.2,0.7V73H452V67.1L452,67.1z M273.2,82.8c1-0.2,2.1-0.3,3.4-0.3c2.2,0,3.8,0.5,5,1.5
	c1,1,1.6,2.4,1.6,4.4s-0.6,3.6-1.7,4.7c-1.5,1.3-3.4,1.9-5.4,1.8l-2.9-0.2L273.2,82.8L273.2,82.8z M274.8,93.5h1.6
	c3.4,0,5.2-1.8,5.2-5c0-3-1.6-4.8-5-4.8c-0.6,0-1.2,0.1-1.8,0.2C274.8,83.9,274.8,93.5,274.8,93.5z M287.4,83.6c0,0.5-0.4,1-1,1
	c-0.6,0-1-0.4-1-1c0-0.6,0.4-1,1-1S287.4,83,287.4,83.6z M285.6,94.7V86h1.6v8.7H285.6z M290,93.1c0.5,0.3,1.3,0.6,2.1,0.6
	c1.1,0,1.7-0.5,1.7-1.3c0-0.7-0.5-1.1-1.6-1.6c-1.6-0.5-2.3-1.4-2.3-2.4c0-1.4,1.1-2.6,3-2.6c0.7,0,1.5,0.2,2.1,0.6l-0.4,1.1
	c-0.3-0.2-1-0.5-1.8-0.5c-0.9,0-1.4,0.5-1.4,1.2s0.5,1,1.6,1.5c1.6,0.6,2.3,1.3,2.3,2.6c0,1.5-1.2,2.6-3.2,2.6
	c-0.9,0-1.7-0.2-2.5-0.6L290,93.1L290,93.1z M302.6,94.7l-0.1-1c-0.6,0.6-1.5,1.2-2.7,1.2c-1.8,0-2.7-1.2-2.7-2.5
	c0-2,1.9-3.2,5.2-3.2V89c0-0.7-0.2-2-2-2c-0.8,0-1.5,0.2-2.2,0.6l-0.4-1c0.7-0.5,1.8-0.8,2.9-0.8c2.7,0,3.3,1.8,3.3,3.6v3.2l0.1,2.1
	L302.6,94.7L302.6,94.7z M302.4,90.3c-1.8,0-3.7,0.3-3.7,2c0,1,0.6,1.4,1.5,1.4c1,0,1.8-0.7,2-1.4l0.2-0.5V90.3z M306.6,93.1
	c0.6,0.4,1.3,0.6,2,0.6c1.2,0,1.7-0.5,1.7-1.3c0-0.7-0.4-1.1-1.6-1.6c-1.6-0.5-2.3-1.4-2.3-2.4c0-1.4,1.1-2.6,3-2.6
	c0.9,0,1.7,0.3,2.2,0.6l-0.4,1.1c-0.4-0.2-1-0.5-1.8-0.5c-1,0-1.5,0.5-1.5,1.2s0.5,1,1.7,1.5c1.5,0.6,2.3,1.3,2.3,2.6
	c0,1.5-1.2,2.6-3.3,2.6c-0.8,0-1.7-0.2-2.4-0.6L306.6,93.1L306.6,93.1z M316.2,83.5V86h2.3v1.2h-2.4V92c0,1.1,0.3,1.7,1.2,1.7l1-0.1
	v1.2L317,95c-0.7,0-1.3-0.2-1.7-0.7c-0.5-0.4-0.6-1.2-0.6-2.2v-4.8h-1.4V86h1.4v-2L316.2,83.5L316.2,83.5z M321.5,90.7
	c0,2.1,1.4,3,3,3c1,0,1.8-0.2,2.4-0.5l0.2,1.2c-0.9,0.4-1.9,0.5-2.9,0.5c-2.7,0-4.3-1.8-4.3-4.4s1.6-4.7,4.1-4.7
	c2.9,0,3.6,2.5,3.6,4.1v0.8H321.5z M326.1,89.5c0-1-0.4-2.5-2.2-2.5c-1.6,0-2.3,1.4-2.4,2.5H326.1L326.1,89.5z M330,88.7V86h1.3v1.7
	h0.1c0.4-1.2,1.4-1.9,2.4-1.9h0.5v1.6l-0.5-0.1c-1.2,0-2,0.8-2.2,2v5.4H330V88.7z M340.6,82.8c0.8-0.2,2-0.3,3-0.3
	c1.7,0,2.7,0.3,3.5,1c0.7,0.6,1,1.4,1,2.3c0,1.6-1,2.7-2.3,3.1c0.9,0.4,1.5,1.2,1.7,2.5c0.2,1.1,0.6,2.2,1,3.3h-1.6
	c-0.2-0.3-0.5-1.4-0.8-2.9c-0.4-1.6-1-2.3-2.5-2.3h-1.5v5.2h-1.5v-12L340.6,82.8z M342.1,88.3h1.6c1.7,0,2.8-1,2.8-2.3
	c0-1.6-1.1-2.3-2.8-2.3c-0.8,0-1.3,0-1.6,0.2C342.1,83.9,342.1,88.3,342.1,88.3z M352.6,83.6c0,0.5-0.4,1-1,1c-0.6,0-1-0.4-1-1
	c0-0.6,0.4-1,1-1S352.6,83,352.6,83.6z M350.8,94.7V86h1.6v8.7H350.8z M355.2,93.1c0.5,0.3,1.3,0.6,2.1,0.6c1.2,0,1.7-0.5,1.7-1.3
	c0-0.7-0.4-1.1-1.6-1.6c-1.6-0.5-2.3-1.4-2.3-2.4c0-1.4,1.1-2.6,3-2.6c0.9,0,1.7,0.3,2.1,0.6l-0.4,1.1c-0.3-0.2-1-0.5-1.7-0.5
	c-1,0-1.5,0.5-1.5,1.2s0.5,1,1.7,1.5c1.5,0.6,2.2,1.3,2.2,2.6c0,1.5-1.1,2.6-3.2,2.6c-0.9,0-1.7-0.2-2.5-0.6
	C354.8,94.3,355.2,93.1,355.2,93.1z M364.5,90l0.9-1l2.5-3h2l-3.5,3.6l3.9,5.1h-2l-3-4.2l-0.8,1v3.2h-1.4V82h1.5v8H364.5z
	 M376.1,82.8c0.8-0.2,2-0.3,3-0.3c1.7,0,2.8,0.3,3.5,1c0.7,0.6,1,1.4,1,2.3c0,1.6-1,2.7-2.3,3.1c1,0.4,1.5,1.2,1.8,2.5
	c0.2,1.1,0.6,2.2,1,3.3h-1.7c-0.2-0.3-0.5-1.4-0.8-2.9c-0.4-1.6-1-2.3-2.4-2.3h-1.5v5.2h-1.6v-12L376.1,82.8z M377.7,88.3h1.6
	c1.7,0,2.7-1,2.7-2.3c0-1.6-1.1-2.3-2.8-2.3c-0.7,0-1.3,0-1.5,0.2C377.7,83.9,377.7,88.3,377.7,88.3z M387.1,90.7c0,2.1,1.4,3,3,3
	c0.8,0,1.7-0.1,2.4-0.5l0.3,1.2c-1,0.4-2,0.6-3,0.5c-2.6,0-4.2-1.8-4.2-4.4s1.5-4.7,4-4.7c3,0,3.7,2.5,3.7,4.1v0.8H387.1L387.1,90.7
	z M391.8,89.5c0-1-0.5-2.5-2.2-2.5c-1.6,0-2.3,1.4-2.5,2.5H391.8z M403.2,82v10.5l0.2,2.2h-1.5v-1.5c-0.6,1-1.6,1.7-3,1.7
	c-2.1,0-3.8-1.8-3.8-4.4c0-2.9,1.8-4.7,4-4.7c1.3,0,2.2,0.6,2.6,1.3V82H403.2L403.2,82z M401.7,89.6v-0.7c-0.3-1-1.2-1.9-2.4-1.9
	c-1.6,0-2.6,1.5-2.6,3.4c0,1.8,0.9,3.2,2.6,3.2c1,0,2-0.7,2.3-1.8l0.1-0.7L401.7,89.6L401.7,89.6z M413.6,92.3v2.4h-1.3l-0.1-1.4
	c-0.4,0.7-1.4,1.6-3,1.6c-1.3,0-3-0.7-3-3.8v-5h1.7v4.7c0,1.7,0.5,2.8,1.9,2.8c1,0,1.8-0.7,2-1.4c0.2-0.3,0.2-0.5,0.2-0.8V86h1.6
	L413.6,92.3L413.6,92.3z M422.9,94.4c-0.4,0.2-1.4,0.5-2.5,0.5c-2.7,0-4.4-1.8-4.4-4.4c0-2.7,1.9-4.7,4.7-4.7c1,0,1.8,0.3,2.2,0.5
	l-0.4,1.2c-0.3-0.2-1-0.4-1.8-0.4c-2,0-3,1.5-3,3.3c0,2,1.2,3.2,3,3.2c0.8,0,1.4-0.2,1.9-0.4C422.6,93.2,422.9,94.4,422.9,94.4z
	 M427.2,83.5V86h2.4v1.2h-2.4V92c0,1.1,0.3,1.7,1.2,1.7l0.9-0.1v1.2L428,95c-0.8,0-1.4-0.2-1.7-0.7c-0.5-0.4-0.7-1.2-0.7-2.2v-4.8
	h-1.3V86h1.3v-2C425.6,84,427.2,83.5,427.2,83.5z M433.5,83.6c0,0.5-0.4,1-1,1c-0.6,0-1-0.4-1-1c0-0.6,0.5-1,1-1
	C433.1,82.6,433.5,83,433.5,83.6z M431.7,94.7V86h1.6v8.7C433.3,94.7,431.7,94.7,431.7,94.7z M444.2,90.3c0,3.2-2.2,4.6-4.3,4.6
	c-2.3,0-4.2-1.7-4.2-4.5c0-2.9,2-4.6,4.4-4.6c2.5,0,4.2,1.8,4.2,4.5H444.2z M437.3,90.3c0,2,1.1,3.4,2.7,3.4c1.5,0,2.6-1.4,2.6-3.3
	c0-1.5-0.7-3.4-2.6-3.4C438.2,87,437.3,88.7,437.3,90.3L437.3,90.3z M446.7,88.4l-0.1-2.4h1.4v1.5h0.1c0.4-0.9,1.5-1.7,2.9-1.7
	c1.2,0,3,0.7,3,3.7v5.2h-1.5v-5c0-1.4-0.5-2.6-2-2.6c-1,0-1.9,0.8-2.1,1.7l-0.2,0.7v5.2h-1.5L446.7,88.4L446.7,88.4z"/>
</svg>
