<?xml version="1.0" encoding="utf-8"?>
<!-- Generator: Adobe Illustrator 26.0.3, SVG Export Plug-In . SVG Version: 6.00 Build 0)  -->
<svg version="1.1" id="Calque_1" xmlns="http://www.w3.org/2000/svg" xmlns:xlink="http://www.w3.org/1999/xlink" x="0px" y="0px"
	 viewBox="0 0 496.8 141.7" style="enable-background:new 0 0 496.8 141.7;" xml:space="preserve">
<style type="text/css">
	.st0{fill:#005496;}
</style>
<path class="st0" d="M77.3,48.6l0.2,0.4l0.1,0.1v0.2l-0.3-0.1L77.2,49c-0.2,0-0.3-0.2-0.4-0.4l0.1-0.1h0.2L77.3,48.6 M78,49.3
	L78,49.3l-0.3,0.1l0.1-0.2H78 M78,49.8L78,49.8l0.3,0.1v0.3c-0.2,0,0-0.2-0.2-0.2v0.3H78l-0.1-0.2H78L78,49.8l-0.4-0.1v-0.1h0.3
	l0.2,0.2L78,49.8z M78.4,50.5L78.4,50.5c0.1,0.2,0.3,0.3,0.2,0.4c0,0.1,0,0.2-0.2,0.2l-0.2-0.2v-0.4L78.4,50.5 M78.8,51.3L78.8,51.3
	l-0.3,0.1l0.2-0.2h0.1L78.8,51.3z M79,51.6l-0.2,0.1h-0.2v-0.2h0.3 M79,52v0.2c0.2,0,0.2,0.2,0.2,0.3c0,0.2,0,0.4,0.2,0.6v0.5
	l0.1,0.4v0.1c0,0.2-0.1,0.1-0.2,0.2L79,54v-0.5c0-0.3-0.2-0.5-0.3-0.8l-0.2-0.3l-0.1-0.3v-0.3h0.2c-0.1,0.1,0,0.3,0,0.4v0.1l0.1-0.2
	v-0.3h0.2 M79.7,55.2L79.7,55.2l-0.2,0.1v-0.2h0.2 M79.4,55.8L79.4,55.8L79.4,55.8l-0.1-0.1h0.1 M78,57.7L78,57.7l-0.2,0.1
	c0-0.1,0-0.2,0.2-0.2 M76.7,58h-0.2C76.5,58,76.6,57.9,76.7,58z M76.8,58L76.8,58C76.8,58.1,76.7,58.1,76.8,58 M77.4,58v0.2
	c-0.1,0-0.2-0.2-0.3,0L77,58H77.4 M77.8,60.9c0,0.1,0.2,0.2,0.1,0.4l-0.5,0.1l-0.3-0.1l-0.2-0.2l0.2-0.1l0.1-0.1h0.3
	C77.6,60.7,77.7,60.9,77.8,60.9 M85.5,63.5c0,0.2-0.2,0.1-0.3,0.2H85v-0.2C85.2,63.5,85.3,63.3,85.5,63.5L85.5,63.5z M41.2,64.8V65
	h-0.3l-0.1-0.2c0.1-0.1,0.2,0,0.2,0S41.2,64.8,41.2,64.8z M39.8,65L39.8,65l-0.2,0.1l-0.2-0.2h0.1C39.7,64.8,39.7,64.9,39.8,65
	 M44.8,65L44.8,65 M39.5,65.3h-0.3c0,0.1,0,0,0,0l0.1-0.2L39.5,65.3 M87.3,65.8V66H87v-0.2H87.3 M39.5,66L39.5,66l-0.3,0.1v-0.2
	L39.5,66L39.5,66 M87,66.3C87,66.4,87,66.5,87,66.3L87,66.3L87,66.3 M86.2,66.9v0.3c-0.2,0-0.1,0.3-0.3,0.3h-0.2V67l0.3-0.2
	L86.2,66.9 M39.4,67L39.4,67L39.4,67 M39.8,67.2v0.4V67.2L39.8,67.2 M40,67.6L40,67.6L40,67.6 M79.7,69v0.2l-0.2,0.2l-0.1-0.1V69
	H79.7 M40.8,69.6L40.8,69.6l-0.4,0.1v-0.2l-0.2-0.1v-0.2h0.1c0.3,0,0.3,0.2,0.4,0.4 M79.4,69.6v0.2c0,0,0,0.2-0.2,0.1h-0.1v-0.2
	L79.4,69.6L79.4,69.6 M42.8,69.7C42.8,69.6,42.8,69.7,42.8,69.7 M42,70.6l0.1,0.3H42c-0.2,0-0.3-0.2-0.3-0.3v-0.2L42,70.6
	 M42.4,71.3L42.4,71.3l0.3,0.4v0.1h-0.2c-0.1-0.1-0.2-0.2-0.3-0.3c0,0-0.2-0.1,0-0.2l0.1-0.2L42.4,71.3 M48.3,78.6l0.3,0.3v0.2h-0.1
	L48.2,79l-0.4-0.4v-0.3H48L48.3,78.6 M39,89.5c5.9,2.5,9.8-1.1,16.3-1.1c6.6-0.2,13.1,2.4,17.6,7.3l-1.4,0.5c-3-4.2-7-6.4-10.5-6.4
	c-2.8,0-7.1,2.9-12.2,2.9C46,92.7,40.8,92.1,39,89.5"/>
<path class="st0" d="M87.5,89.6c-5.9,2.5-9.8-1.2-16.3-1.2c-6.6-0.2-13.1,2.4-17.6,7.3l1.4,0.5c3-4.2,7-6.4,10.5-6.4
	c2.8,0,7,2.9,12.2,2.9C80.5,92.7,85.6,92.1,87.5,89.6 M50.9,87.6c-1.2,0.2-5.2,1.2-7.3,1c-4.4-0.4-8.3-2.9-10.4-6.8
	c3.1,2.4,8.5,3.3,10.6,3.9c2,0.5,3.7,1.2,5,1.4c-3-1.1-4.6-2.6-5.3-4.2c-1-2.2-1.6-3.8-2.4-7c1.4,1.3,4,4.3,5,5.3
	C47.9,83.2,48.5,86.7,50.9,87.6"/>
<path class="st0" d="M42.2,84c-2-0.9-5.5-1.3-7.3-2.4c-2.5-1.5-5.7-5-6.4-10.5c1.8,3.5,5.7,6,7.4,7.3c1.6,1.3,4,3.8,5,4.5
	c-1.8-1.7-3-3.8-3.6-6.2c-0.1-2.4-0.7-4.5-0.5-7.9c0.7,1.9,3.2,6,3.7,7.4C41.7,79.8,40.9,81.5,42.2,84"/>
<path class="st0" d="M36.3,76.7c-1.8-1.5-6.3-5-7.5-7c-1.6-2.7-2.5-5.7-2.5-8.8c1,3.9,4.5,7,5.7,8.6c1.3,1.8,2.2,4.5,3,5.5
	c-1.1-2.1-1.6-4.4-1.5-6.8c0-2.3,0.3-5,1.2-8c0.8,2.1,1,3.4,1.2,4.8C36.3,70.1,34.5,74.4,36.3,76.7"/>
<path class="st0" d="M31.9,67.8c-1.5-2.8-4.2-5.8-5-8.4c-0.8-2.8-1.3-6-0.4-9.3c0.2,4,2.5,6,3.3,9.4l1.2,5.2c-0.3-3,0.5-5,1.2-6.7
	c0.6-1.2,1.1-2.2,2.8-4.7c0.2,2.6-0.7,6-1,6.7C33.5,61.5,31.2,65,31.9,67.8"/>
<path class="st0" d="M30.5,60c-0.5-2.8-1.7-6.3-1.9-8.7c-0.1-2.1,0.4-7.1,3.3-10c-1.2,2.8-0.7,5.7-0.5,7.8c0.3,3.1-1,5-0.7,6.3
	c0.4-1.3,0.8-3,1.8-4.3C34.1,49.4,35,49,38,46c-1.1,2.6-3,6-3.4,6.6c-1,1.7-4,4.7-4,7.3"/>
<path class="st0" d="M32.3,50.5c0.3-3-0.5-4.3,0-6.7c0.4-2,1.8-5.8,4.7-7.7c-1,1.6-1.6,3.4-1.9,5.3c-0.5,3.1-1.2,3.6-1.2,4.9
	c0.9-1.4,1.9-2.6,3.2-3.6c2-1.3,2.8-1.7,4.6-3.5c-0.8,2.4-3.3,5.2-3.8,5.7C35.6,47.3,34.1,47.5,32.3,50.5"/>
<path class="st0" d="M43.7,34.4c-1.5,0.6-4.8,2.5-5.7,3.7c-1,1.1-2.2,3.3-2.6,5c1-1,2.5-1.7,3.7-2.8S41.9,36.4,43.7,34.4 M75.5,87.6
	c1.2,0.2,5.1,1.2,7.2,1c4.4-0.3,8.4-2.9,10.5-6.8c-3.1,2.4-8.5,3.3-10.6,3.9l-5,1.5c3-1.2,4.6-2.7,5.3-4.3c1.1-2.2,1.9-4.6,2.4-7
	l-5,5.3C78.4,83.3,77.9,86.7,75.5,87.6"/>
<path class="st0" d="M84.1,84c2.2-0.8,5.6-1.3,7.4-2.4c2.4-1.4,5.7-5,6.4-10.5c-1.9,3.5-5.8,6-7.4,7.3c-1.7,1.3-4,3.8-5,4.5
	c2.2-2.3,3.4-4.8,3.6-6.2c0-2.3,0.6-4.5,0.5-7.9c-0.7,1.9-3.2,6-3.7,7.4C84.6,79.9,85.5,81.5,84.1,84"/>
<path class="st0" d="M90.1,76.8c1.8-1.6,6.3-5.1,7.4-7.1c1.5-2.5,2.5-5.4,2.5-8.8c-1,3.9-4.4,7-5.7,8.6c-1.2,1.8-2.2,4.5-3,5.5
	c1.6-2.8,1.6-5.2,1.6-6.8c0-2.2-0.4-5-1.3-8c-0.6,1.5-1,3.2-1.1,4.8C90.1,70.1,91.8,74.5,90.1,76.8"/>
<path class="st0" d="M94.5,67.8c1.4-2.8,4.1-5.8,5-8.4c0.7-2.7,1.2-6,0.3-9.2c-0.2,3.9-2.4,5.9-3.2,9.3l-1.2,5.2
	c0.2-3-0.5-5-1.2-6.6c-0.8-1.7-1.8-3.3-2.8-4.8c-0.2,2.7,0.7,6,1,6.7C92.9,61.6,95.1,65,94.5,67.8"/>
<path class="st0" d="M95.9,60c0.5-2.8,1.7-6.3,1.8-8.7c0.2-2.1-0.3-7.1-3.2-10c1.2,2.8,0.7,5.7,0.5,7.8c-0.4,3.2,0.9,5,0.6,6.3
	c-0.2-1.5-0.8-2.9-1.7-4.2c-1.6-1.8-2.5-2.3-5.4-5.2c1.1,2.6,3,6,3.3,6.6C92.8,54.4,95.9,57.3,95.9,60"/>
<path class="st0" d="M94,50.5c-0.2-3,0.6-4.3,0.1-6.7c-0.4-2-1.8-5.7-4.8-7.6c0.9,1.3,1.6,3,2,5.2c0.4,3.1,1.1,3.6,1.2,5
	c-0.7-1.2-2-2.7-3.3-3.7c-2-1.2-2.7-1.7-4.5-3.5c0.9,2.2,2.2,4.1,3.8,5.8C90.7,47.3,92.3,47.6,94,50.5"/>
<path class="st0" d="M82.7,34.4c1.4,0.6,4.7,2.6,5.7,3.7s2.1,3.3,2.6,5c-1-1-2.5-1.7-3.7-2.8C86.1,39.3,84.4,36.5,82.7,34.4
	 M39.1,65.7h0.3H39.1z M65.8,34C65.8,34,65.8,34.1,65.8,34 M67.8,34.5c-0.1,0-0.3-0.1-0.4,0v0.1c0.2,0.1,0.3,0.2,0.5,0.1L67.8,34.5
	 M68.8,35.3c0.2,0,0.4,0.2,0.5,0v-0.1L69,35l-0.3,0.2L68.8,35.3 M68.5,35.6l-0.1-0.2h-0.2v0.2H68.5L68.5,35.6 M75.1,39.7l0.4,0.2
	c0.2,0,0.2,0.2,0.3,0.2c0.2,0.1,0.3,0.3,0.5,0.2l0.1-0.3v-0.3l-0.2-0.2l-0.3-0.3h-0.7c0,0-0.2,0-0.2,0.2
	C75,39.4,75.1,39.7,75.1,39.7z M67.3,40L67.3,40L67,39.9v0.2h0.3 M68.5,40.5l-0.1-0.3L68,40h-0.2l-0.3-0.2V40l0.2,0.2l0.3,0.2
	c0,0,0,0.2,0.2,0.2h0.3 M66.8,40.1c0,0-0.1-0.1-0.2,0h-0.1l0.2,0.2c0.1,0,0.1,0.3,0.3,0.2v-0.1C67,40.4,67,40.2,66.8,40.1
	 M67.2,40.8L67.2,40.8L67.2,40.8 M60.5,40.8h-0.2V41l0.3,0.1L60.5,40.8L60.5,40.8 M60,40.8L60,40.8l0.1,0.2L60,40.8 M67.2,40.9v0.3
	l0.2,0.1l0.1-0.1V41C67.5,40.9,67.3,40.8,67.2,40.9 M61,41h-0.2l-0.1,0.2H61v-0.1V41z M68.3,41.9L68.3,41.9
	C68.2,41.9,68.2,42,68.3,41.9 M68.7,42.5v-0.3l-0.2-0.1h-0.1v0.3L68.7,42.5 M69.2,42.7v-0.2L69,42.4L69.2,42.7z M68.7,42.5
	L68.7,42.5l-0.1,0.3l0.3,0.2l0.2-0.2c-0.1-0.1-0.1-0.2-0.2-0.1v-0.2C68.8,42.5,68.8,42.6,68.7,42.5 M54,42.6h-0.2l-0.2,0.1v0.1h0.3
	c0,0,0.1,0,0-0.2 M69,43.1l0.3,0.2l0.2-0.2l-0.2-0.2h-0.1l-0.1,0.2 M69.8,43.5l0.1-0.2v-0.1l-0.2-0.1h-0.1v0.3L69.8,43.5 M70,43.7
	L70,43.7l0.2,0.2h0.1l0.1-0.2l-0.1-0.2L70,43.4L70,43.7 M58.7,47.5L58.7,47.5c-0.1,0-0.1,0.1-0.2,0h-0.4c0,0-0.2,0-0.2,0.2v0.1h0.4
	l0.2-0.1h0.3v-0.2 M75.7,47.5L75.7,47.5l0.3,0.1v-0.1H75.7 M75,50l0.2-0.1v-0.1H75V50 M75.4,50.2h0.2V50h-0.3L75.4,50.2 M74.8,50.8
	c0.2,0,0.2,0.2,0.3,0.3v0.1h0.4l-0.2-0.4v-0.6h-0.4l-0.3,0.1l-0.1,0.2v0.1L74.8,50.8"/>
<path class="st0" d="M74.2,51L74.2,51c0.2,0.3,0.2,0.1,0.3-0.1v0.3c0.2,0,0.2-0.1,0.4,0V51l-0.1-0.2h-0.3
	C74.3,50.8,74.2,50.8,74.2,51 M75.7,51.3h0.2v-0.1L75.7,51.3L75.7,51.3 M75,51.2l-0.3,0.2v0.1c-0.1,0.1,0,0.1,0,0.2h0.2l0.2-0.3
	L75,51.2L75,51.2 M76,51.3h0.2H76L76,51.3L76,51.3"/>
<path class="st0" d="M75,51.8h-0.3v-0.1h-0.2c0-0.2-0.1-0.3,0-0.4h-0.2v0.6c-0.3,0-0.5,0-0.6,0.3v0.3h1.1l-0.2-0.2V52H75L75,51.8
	 M67.4,52.3h0.2l0.1-0.2v-0.2h-0.1c0,0.2-0.3,0-0.4,0.1v0.1l0.2,0.1 M67.8,52.3v0.3h0.7l0.3-0.3l-0.2-0.2h-0.2L68.3,52
	c0-0.1-0.2,0-0.2,0h-0.2c0,0-0.1,0,0,0c-0.2,0,0,0.2,0,0.3 M66.5,52.3C66.5,52.2,66.6,52.3,66.5,52.3l0.4-0.1h0.2v-0.1h-0.7
	C66.3,52.2,66.4,52.3,66.5,52.3L66.5,52.3z M75.4,52h-0.2v0.2h0.6v-0.1h-0.4 M66.1,52.4L66.1,52.4L66.1,52.4
	C66.2,52.2,66.2,52.3,66.1,52.4C66.2,52.3,66.1,52.3,66.1,52.4 M64,52.2L64,52.2v0.2V52.2C64,52.2,64,52.2,64,52.2 M62.2,52.2h-0.3
	v0.2h0.2v-0.1 M72.9,52.5l-0.2-0.1v0.2h0.2 M61.9,52.5h-0.2v0.2h0.1l0.1-0.1 M64.5,52.5L64.5,52.5L64.5,52.5L64.5,52.5 M73.1,52.6
	l-0.2,0.2h-0.2l0.1,0.2h0.7v-0.4C73.4,52.5,73.3,52.6,73.1,52.6 M67,53.6c0,0-0.1,0.1,0,0.2l0.1-0.1c0-0.2,0.3-0.3,0.4-0.4l0.3-0.2
	h0.1v-0.3l-0.2-0.1l-0.2,0.1c0,0.2-0.3,0.1-0.3,0.3L67,53.6 M61.5,52.7L61.5,52.7l-0.1,0.2h0.2v-0.2 M64.8,52.8L64.8,52.8L64.8,52.8
	L64.8,52.8L64.8,52.8 M60.6,53.4l-0.1,0.3v0.1h0.1v-0.1V53.4 M65,56.6C65,56.6,65,56.4,65,56.6C64.9,56.5,64.9,56.7,65,56.6
	 M64.6,56.7C64.6,56.7,64.7,56.6,64.6,56.7v-0.2h-0.1L64.6,56.7L64.6,56.7 M64.8,57H65v-0.2c0,0-0.1-0.1-0.2,0v0.1 M60.8,57.4
	L60.8,57.4l0.1-0.3l-0.3-0.2L60.4,57v0.1C60.6,57.1,60.6,57.4,60.8,57.4 M61.3,58c0,0,0.2,0,0.2-0.2h-0.2v-0.3l-0.2-0.1L61,57.5v0.2
	c0.1,0,0,0,0,0.1l-0.1-0.2h-0.1c-0.1,0-0.2,0-0.2,0.2l0.2,0.2H61.3 M60.4,58.1c0-0.1,0.1-0.2,0-0.2L60.2,58v0.2L60.4,58.1
	 M60.7,58.1l-0.2,0.1l0.2,0.1c0,0,0.1,0.1,0.2,0c0,0,0.1,0,0-0.1L60.7,58.1 M61.8,58.6h-0.2v-0.2c0,0-0.2-0.1-0.1-0.2h-0.3v0.2
	l0.3,0.1v0.3h-0.2L61.1,59v0.3h0.4l0.2-0.1H62l0.1-0.1c0.1-0.2,0-0.3,0-0.4L61.8,58.6 M64.7,58.5L64.7,58.5L64.7,58.5
	C64.7,58.4,64.6,58.4,64.7,58.5 M65,58.4L65,58.4l0.2,0.1C65.2,58.3,65.1,58.4,65,58.4 M60.7,58.6L60.7,58.6l-0.4,0.3V59l0.4,0.3
	L60.7,58.6 M65.1,59.4c0,0.2-0.1,0.3,0,0.4L65,60l0.2,0.1l0.1-0.2v-0.2C65.2,59.7,65.3,59.5,65.1,59.4 M65.2,60.2v0.2l0.5,0.2h0.1
	v-0.3l-0.2-0.1l-0.2-0.1L65.2,60.2 M64,61v-0.5c-0.1,0-0.2-0.1-0.1-0.2h0.2V60h-0.2l-0.1,0.2h-0.1l-0.1,0.1l0.1,0.5h0.2 M51.8,63.3
	L51.8,63.3l0.1-0.6l-0.1-0.4h-0.3l-0.1-0.4h-0.1L51.1,62v0.5l0.2,0.3c0,0.2,0.2,0.3,0.3,0.4c0,0,0,0.1,0.2,0 M62.3,62.5H62l-0.3-0.2
	l-0.1,0.1v0.3c0.1,0.1,0,0.2,0,0.2l0.1,0.2h0.7l0.2-0.4L62.3,62.5 M51.7,63.8h0.2v-0.2l-0.1-0.2h-0.2v0.2L51.7,63.8 M51.8,64v0.2H52
	V64L51.8,64 M52,64.3h0.2h-0.1 M52.1,64.4v0.2H52v0.2h0.2v-0.1l0.2-0.2C52.4,64.5,52.3,64.4,52.1,64.4 M51.8,65
	C51.8,65,52,65,51.8,65L51.8,65C51.8,64.9,51.6,64.9,51.8,65 M74.4,66.8h0.2l0.1-0.4c0-0.2-0.2-0.1-0.3,0h-0.1v0.4 M68.5,66.9
	l0.2-0.1l0.1-0.3h-0.1l-0.4,0.3L68.5,66.9 M64.5,67h0.2v-0.2h-0.2V67 M64.5,67.4L64.5,67.4l0.2,0.1l0.1-0.3h-0.1
	C64.5,67.2,64.5,67.2,64.5,67.4 M67.3,67.6c0.1-0.1,0.4-0.1,0.4-0.3H67l-0.2,0.2c0.2,0.1,0.3,0.1,0.4,0 M65.2,67.7
	c0.1,0.1,0.3,0,0.4,0v-0.2h-0.2L65.2,67.7L65.2,67.7 M75.7,71.9l-0.1-0.3c-0.1,0.1,0,0.1,0,0.2 M59.3,75.3h0.2V75l-0.2-0.1l-0.1,0.2
	L59.3,75.3 M61.5,77.2L61.5,77.2l0.1-0.3h-0.1l-0.1,0.2L61.5,77.2"/>
<path class="st0" d="M87,68.7c-1.2,2.9-3,5.5-5.2,7.8l-3.2-3.1c3.8-3.9,5.9-9.1,6-14.5H89C89,62.3,88.3,65.6,87,68.7 M77.6,80
	c-4.2,2.8-9,4.3-14,4.4V80c2,0,4-0.3,5.8-1v0.1c0.1,0,0.1,0.1,0.2,0h0.1c0.1,0.2,0.3,0.2,0.4,0.3h0.4l0.2-0.2h0.2l0.3-0.3l0.3-0.1
	c0.2,0,0.3,0,0.3-0.2l0.3-0.1l0.1-0.1l0.3-0.1v-0.1l0.2-0.2l0.4-0.2l0.6-0.4c0.2,0,0.3-0.3,0.5-0.4v-0.1c1.4-0.9,2.7-1.9,3.9-3
	l3.1,3.1C80.1,78.1,78.9,79.1,77.6,80 M66.1,74.5l0.1,0.2l0.3,0.1c0,0,0.1,0.1,0.1,0.1v0.2c0.2,0.1,0.3,0.2,0.3,0.4l0.1,0.2
	c0,0,0.1,0.1,0,0.2v0.3l-0.1,0.4l0.2,0.4l0.2,0.2c0,0.2,0.2,0.3,0.3,0.3l0.3,0.1l0.3,0.3l0.2,0.3l0.2,0.2h0.1
	c-1.6,0.5-3.3,0.8-5,0.8v-4.4L66.1,74.5 M65.1,73.5L65.1,73.5c0.3,0,0.1,0.1,0.2,0.2v0.2L63.7,74v-0.6h1.4
	C65.1,73.4,64.9,73.5,65.1,73.5 M63.1,68.2H63l-0.2,0.1c0,0.1-0.2,0-0.2,0H62l-0.4,0.3h-0.1c-1.8-0.3-3.5-1-4.9-2.1L56.1,66l3.1-3
	l0.9,0.6c0.7,0.5,1.5,0.8,2.4,0.9v0.1h0.1c0.1,0,0-0.1,0.1,0v-0.1h0.2h-0.1v0.3c0,0,0,0.1-0.1,0h-0.1L62.5,65v-0.2l-0.2-0.2
	l-0.2,0.2V65l-0.2,0.2l0.2,0.2h0.2l0.2-0.3h0.1v0.2l-0.1,0.1c0,0-0.1,0.1,0,0.2v0.1h0.3l0.1-0.2c0.1,0,0.2-0.2,0.3,0
	c0-0.1,0.2,0,0.2-0.2c0.1,0,0,0.1,0,0.2h-0.1L63,65.6v0.2h-0.5V66l0.1,0.2h0.1c0.1,0,0.2,0.2,0.1,0.3l-0.1,0.1H62l-0.2,0.2V68h0.3
	v0.2h0.2l0.4-0.1v-0.2h0.5v-0.2c0,0,0.2,0,0.2-0.2l0.1-0.2l0.2-0.1V67H64c0.2-0.2,0.3-0.3,0.5-0.3s0.2,0.2,0.4,0.3h0.4l0.2,0.2
	l0.2,0.1v0.2c0.2-0.1,0.2-0.2,0.1-0.3V67l0.1-0.1l-0.2-0.2h-0.1c0-0.1-0.2,0-0.2-0.2h-0.1l-0.2-0.1v-0.1h0.5l0.3,0.2H66v0.2l0.1,0.3
	h0.2c0,0.2,0.1,0.3,0.3,0.3l0.2-0.1H67V67l-0.2-0.2v-0.2c0.2,0,0.4,0.2,0.5,0.3l0.2,0.1l0.3-0.1l0.2-0.1v-0.2l0.4-0.1l0.2-0.2
	l0.2,0.2v0.6h-0.1c-0.1,0.2-0.3,0.2-0.4,0.3c0,0.2-0.3,0.2-0.4,0.2l-0.5,0.1h-0.2l-0.3,0.1L66.6,68v0.2L66,68.4l-0.3-0.1h-0.5v-0.1
	l-0.1-0.3l-0.2-0.2h-0.3l-0.4,0.1h-0.6l-0.2,0.1L63,68.2 M62.7,74c-3.8-0.1-7.5-1.6-10.2-4.3l3-3.1c1.1,1,2.4,1.8,3.8,2.3l1.1,0.4
	h-0.2v0.2l-0.4,0.2l-0.2,0.2v0.3l-0.1,0.2l-0.1,0.4c-0.1,0-0.4,0-0.4,0.3l0.3,0.6l0.1,0.3l0.4,0.3l0.1,0.3l0.2,0.2l0.3,0.3h0.1
	l0.3,0.3h1l0.4,0.1h0.6L62.7,74L62.7,74z M62.7,79.2c-5.2,0-10.3-2.1-14-5.8l0.7-0.6v0.1l0.5,0.3l0.5,0.1H51l0.3-0.2l0.6-0.2h0.2
	l0.5-0.1h0.5l0.4-0.1l0.2-0.2l0.1-0.3c0,0-0.1-0.2,0-0.2l-0.3-0.5c2.7,2,5.9,3.2,9.3,3.3L62.7,79.2L62.7,79.2z M62.7,84.4
	c-6.5-0.1-12.8-2.8-17.4-7.4l3.1-3c3.9,3.8,9.1,5.9,14.5,6v4.4H62.7z M41.9,73c-2.8-4.1-4.3-9-4.4-14h4.4c0,2,0.4,4.1,1,6h-0.2
	c0,0.2-0.1,0-0.2,0l-0.2-0.1l-0.2-0.3l-0.3,0.1l-0.4,0.1v0.3l-0.2,0.1l-0.3,0.1h-0.1l-0.2-0.2h0.2l-0.1-0.4l-0.3-0.1l-0.1,0.2
	c-0.1,0-0.1-0.1-0.2,0H40V65h0.6l-0.2,0.1H40l-0.2,0.3l-0.3,0.2l-0.3-0.1v0.2h0.2v0.7l0.2,0.5v0.2v-0.3l-0.2-0.1h-0.1v-0.2l-0.1-0.2
	h-0.1c-0.1,0,0,0.1,0,0.2v0.3c0.1,0,0.1,0,0,0V67c0,0,0,0.2,0.2,0.3l0.1,0.3c0,0.1,0.1,0.2,0,0.4h0.2h-0.1v0.2l0.1,0.1h0.1V68
	l0.1,0.2l0.1,0.2h-0.1l-0.1-0.1c-0.1,0,0,0.1,0,0.2h0.2c0,0.1,0.1,0.2,0,0.2l0.3,0.3h0.2v-0.6l-0.1-0.2c0-0.2,0-0.3-0.2-0.4v-0.1
	h0.1l0.2-0.1l0.2,0.1l0.4,0.5l0.3,0.2h0.3V68c0.2,0,0.2,0.1,0.3,0.2c0,0.1,0,0.3,0.2,0.3c0.1,0,0,0.2,0.2,0.2c0,0.2,0.2,0,0.4,0.1
	l-0.1-0.4v-0.1l0.1,0.2v0.4l0.1,0.2c0.2,0.2,0.4,0,0.6,0v0.4l0.3,0.5l0.2,0.2c0.2,0,0.3,0.3,0.4,0.3h0.4l0.2-0.1v-0.1H45l0.1,0.5
	c0,0.2,0.2,0.3,0.3,0.5c0.2,0,0.3,0.2,0.5,0.3l0.4,0.1l1.4,1.7l-3,3c-1.2-1-2.1-2.2-3-3.5 M39.4,48.6c1.2-3,3-5.6,5.3-7.9l3.1,3.2
	c-3.8,3.8-5.9,8.9-6,14.3h-4.5c0-3.3,0.8-6.5,2-9.6 M49,37.5c4.1-2.8,9-4.3,14-4.4v4.4c-5.4,0.1-10.6,2.2-14.5,6l-3.1-3.2
	C46.5,39.3,47.7,38.3,49,37.5 M57,62.3h0.6v0.1l-0.1,0.1h-0.2L57,62.3C57.1,62.4,57,62.4,57,62.3 M53.2,60.9v-0.2h0.1l0.2,0.2
	l0.3,0.1h0.7l0.3,0.1l0.1,0.4l0.3,0.1v-0.2h0.1l0.2,0.2l0.2,0.1l0.2,0.1h-0.3v0.1l0.1,0.3l0.4,0.3c0,0,0-0.1,0.1,0l0.1,0.2h0.3
	l-0.1-0.4c0.1,0,0-0.2,0-0.2v-0.2h0.1V62l0.2,0.2c0,0-0.1,0.1,0,0.2v0.3c-0.1,0,0,0,0,0.1V63h0.1v0.4l0.3,0.1l0.1-0.2V63
	c0.1-0.1,0.2-0.2,0.1-0.3c0-0.2,0.3-0.2,0.3-0.3l0.1-0.2l0.2-0.5h0.1v-0.2l0.6,0.8l-3.1,3c-1.2-1.3-2-2.9-2.4-4.6 M52.2,60.9
	L52,60.8h-0.3v-0.4h0.1l0.3,0.2h0.1V61 M48.8,72.3l-0.5,0.5l-0.6-0.5H48c0-0.2,0.2-0.2,0.4-0.2L48.8,72.3L48.8,72.3z M56.8,44
	c-1.7,0.8-3.3,1.8-4.8,3.1L49,44c3.8-3.6,8.7-5.6,13.9-5.7v4.4c-2,0-4,0.5-6,1.3 M56.1,50.6l-0.3,0.2l-3.1-3.1
	c2.7-2.6,6.3-4.1,10.1-4.2V48c-2.5,0.1-4.8,1.1-6.7,2.7 M52.6,58.3H51V58c-0.1,0,0-0.2,0-0.2c0-0.2,0.1-0.2,0.2-0.2l0.4-0.2h0.3
	c0.2,0,0.3,0,0.4,0.2c0,0,0.1,0.1,0,0.2c0.2,0,0.2,0.2,0.2,0.3L52.6,58.3 M52.1,54.9l0.3,0.2l0.6-0.2l-0.3,0.2h-0.3l-0.3,0.2H52
	c-0.1,0.2-0.2,0.2-0.3,0.2h-0.4L51,56l-0.1,0.2l-0.2,0.2l-0.1,0.3L50.4,57v0.3h-0.1v0.3c0.1,0.3,0,0.4-0.2,0.5L50,58.3h-2.1
	c0.1-3.8,1.7-7.3,4.3-10l3,3.1c-0.7,0.8-1.4,1.8-1.8,2.8H53l-0.2,0.3h-0.3l-0.3,0.2L52.1,54.9 M54.6,61.1h-0.2l0.2-0.2V61.1
	 M56.6,61.7l-0.2-0.1L56.6,61.7L56.6,61.7 M56.8,62l0.2,0.2C56.8,62.2,56.8,62.1,56.8,62c-0.1,0-0.2,0-0.1-0.2L56.8,62 M58.1,54.7
	l-0.3-0.1c0-0.1-0.2,0-0.2,0c0-0.1,0-0.1-0.1,0c-0.1-0.1-0.2,0-0.4,0H57c0-0.2-0.2-0.2-0.3-0.3c-0.1-0.2-0.3-0.3-0.4-0.3l-0.4-0.2
	c-0.3,0-0.5-0.1-0.8,0H55L54.6,54l-0.3,0.1c0.4-0.8,1-1.5,1.5-2.1l2.7,2.6v0.1h-0.2H58.1L58.1,54.7 M62.3,52.4h0.2l0.2-0.1h0.1v0.9
	c-0.5,0-0.9,0.1-1.4,0.3c0-0.2,0.2-0.4,0-0.5l-0.2,0.1L61,53.5l-0.1,0.3c0,0-0.2,0.1-0.1,0.2l-0.3,0.3h-0.2c-0.2,0,0,0.3-0.3,0.3
	c0,0,0-0.1-0.1,0h-0.3l-3.2-3.1l0.2-0.2c1.8-1.5,4-2.4,6.3-2.5V52h-0.5l-0.1,0.2L62.3,52.4 M47.1,58.3h-4.5
	c0.1-5.2,2.2-10.2,5.9-13.8l3.1,3.2C48.8,50.6,47.2,54.3,47.1,58.3 M45.4,63.3v1.5L45,65h-0.3c-0.2,0.2-0.4,0.1-0.6,0.2h-0.4
	c-0.7-2-1-4.1-1-6.2H47c0,0.7,0,1.4,0.2,2H47c-0.2,0-0.4,0-0.5,0.2l-0.3,0.6H46v0.3c-0.2,0-0.2,0.1-0.3,0.2v0.3
	c-0.2,0.1-0.2,0.2-0.2,0.3l-0.1,0.2V63.3 M49,59.8l-0.1,0.6l-0.1,0.3v0.4c0.1,0,0.2,0,0.3,0.2c0,0,0,0.2-0.2,0.3h-0.4l-0.3-0.2H48
	c-0.1-0.8-0.2-1.6-0.2-2.4h1.7l-0.2,0.4C49.3,59.6,49,59.6,49,59.8 M51,68.8l0.2-0.1l0.3-0.1l0.1-0.2v-1c0-0.2-0.2-0.3-0.3-0.4
	L51,66.5v-1c0-0.2,0.3,0,0.3-0.3l0.2-0.1V65c-0.1-0.1-0.2,0-0.2,0c-0.1,0,0-0.2-0.2-0.1V65L51,65.1v-0.7l-0.2-0.1v-0.1
	c0,0-0.1-0.1,0-0.2h0.1c0-0.1,0-0.2-0.2-0.2v-0.6h-0.2c-0.2,0-0.3,0.2-0.4,0l0.1-0.2h0.3v-0.3l-0.4-0.4L50,62.1L49.8,62l-0.1-0.1
	v-0.1l-0.1-0.2v-0.3l-0.1-0.4c-0.1-0.1,0-0.3,0-0.4l0.1-0.2h0.6l0.2-0.3l0.1-0.6h0.7l0.1-0.1l0.1-0.2h1l0.1,0.3h0.2v0.2
	c0,0-0.1,0.1,0,0.2l-0.2,0.3h-0.2l-0.2,0.2h-0.3c0-0.3-0.2-0.6-0.5-0.6l-0.1,0.1l0.1,0.5V61h-0.5v0.4l0.2,0.2h0.2l0.1,0.2h0.3V62
	h0.3l-0.1-0.1h0.1v-0.1l0.3-0.2l-0.1-0.2H52l-0.1,0.2l-0.2,0.1v-0.6h0.4l0.2-0.2v0.2c0,0,0,0.2-0.2,0.2h0.2c0,0.1,0.2-0.1,0.2,0h0.1
	c0.5,1.8,1.4,3.4,2.6,4.7L52,69h-1V68.8 M63.9,65C63.9,65,64,65,63.9,65h-0.2v-0.1h-0.1l-0.1-0.2v-0.2h0.6v0.2l-0.2,0.1L63.9,65
	 M65.4,64.2L65.4,64.2l-0.1,0.3l-0.2,0.2h-0.3l-0.2-0.1v-0.2c-0.1-0.1-0.2-0.2-0.2-0.3h-0.1v-0.4h0.2v0.2l0.2,0.2l0.1,0.2H65
	c0.2,0,0.1,0,0.2-0.2v-0.5l-0.1-0.1v-0.8c0.1,0,0.2,0,0.2,0.2v0.7h0.4v0.1l-0.1,0.1l-0.3,0.1L65.4,64.2 M63.3,54.2h0.3v0.2H63
	c-0.1-0.2-0.3-0.1-0.4-0.1h-0.1l-0.1,0.1v0.3l0.3,0.3l0.3,0.2l0.1,0.2h0.3l0.5,0.1h0.2l0.2,0.2l0.3,0.2l0.2,0.5H65l0.3,0.1
	c0,0,0.1-0.1,0.2,0l-0.2,0.3v0.4l0.3,0.1v0.2c0,0.2-0.4,0.1-0.3,0.3v0.1l-0.2,0.3v0.2h0.5l0.1,0.2l0.2,0.4l0.2,0.2l0.2-0.1v-0.2
	c0.1,0.1,0,0.1,0,0.1v0.2l-0.2,0.2h0.5l0.4-0.2h0.1v0.3h0.1v0.1H66c-0.1,0.2,0,0.4,0.2,0.5l0.1,0.1l-0.1,0.2v0.5
	c-0.2,0-0.3,0.2-0.2,0.3l-0.1,0.2h-1.2l-0.3,0.3L64.3,62l-0.2,0.2v0.3L64,62.9l-0.1,0.2l-0.3,0.2v0.3h-0.4c-1.2,0-2.4-0.4-3.3-1.2
	h0.2l0.3-0.2l0.3-0.1h0.6c0.1-0.1,0.2,0,0.4,0l0.4-0.2c0.1-0.1,0.2-0.2,0.1-0.3l0.2-0.1v-0.2c0,0,0.1,0,0-0.2V61l0.2-0.2l0.2-0.4
	l0.1-0.4c0,0-0.3,0-0.2-0.1c0,0,0.2,0,0.2-0.2v-0.1c-0.3-0.2-0.5-0.3-0.8-0.3h-1.4v0.3c-0.1,0,0,0.1,0,0.2l-0.1,0.3v0.4l-0.1,0.2
	l-0.1-0.1c0-0.1,0.1-0.1,0-0.2L60,60.6l-0.1,0.2L59.8,61l-0.2,0.1c0,0.1,0,0.3-0.2,0.4c0,0-0.1,0,0,0l-0.2,0.2
	c-0.2-0.3-0.4-0.5-0.5-0.8l0.2-0.2H59l0.2-0.2h0.1v0.2c0.1,0,0.2,0.2,0.3,0l0.1-0.1l0.1-0.3l0.1-0.3l0.3-0.4l0.1-0.2v-0.1l-0.2-0.1
	v-0.6c0,0,0.1-0.1,0-0.2l-0.2-0.2c0,0,0,0.1,0,0h-0.1l-0.1,0.2v0.3h0.4l-0.3,0.2l-0.1,0.2v0.2l-0.1,0.3l-0.2,0.2h-0.2l0.2-0.1
	c-0.2,0-0.1-0.2-0.2-0.2h-0.3l-0.2,0.1c0,0-0.1,0.1-0.2,0h-0.2l-0.2,0.1h-0.6c0,0,0-0.1-0.1,0h-0.2v0.1h-0.4v-0.1
	c0.2-0.2,0.4-0.1,0.5-0.3V59l0.3-0.5l0.1-0.1h0.4l0.3,0.2h0.1l0.1-0.1c0-0.1-0.1-0.2,0-0.2l0.2,0.2c0.1,0,0,0.1,0,0.2h-0.1v0.2
	l-0.2,0.3h0.3l0.1-0.2v-0.3l0.1,0.2l0.1,0.4h0.5v-0.5c0-0.2,0.2-0.3,0.1-0.5V58h0.7v-0.1c0.2,0,0.2-0.2,0.3-0.3h-0.2
	c-0.1-0.2-0.3-0.2-0.5-0.1l-0.1,0.1c-0.1,0,0-0.1,0-0.2l0.2-0.2l0.2-0.3h0.2c0.2,0,0-0.3,0.2-0.4l0.1-0.2h0.4l0.6-0.3H62
	c0-0.2,0.2-0.3,0.3-0.4l0.1-0.2c0,0,0.1,0,0-0.1v-0.4c-0.1,0,0-0.2,0-0.2v-0.3h0.3v-0.1l-0.3-0.1h-0.1v0.2H62V54l1-0.1v0.3
	 M67.6,64.9l0.2-0.2v0.1c0.1,0.1,0,0.2,0,0.2L67.6,64.9L67.6,64.9 M67.2,66.2L67,66.4L67.2,66.2L67.1,66l0.1-0.2h0.1v-0.4l0.1-0.2
	v0.2h0.3c0,0,0.2,0,0.2-0.2h0.4c0.1-0.1,0.3,0,0.4,0c0,0.1,0.1,0.2,0,0.2c-0.1,0.2-0.3,0.2-0.5,0.2l-0.3,0.1l-0.2,0.1l-0.3,0.3
	L67.2,66.2 M63.6,48.8c2.4,0.1,4.7,1,6.4,2.7l-0.1,0.1h-0.1l-0.2-0.1h-0.1c0-0.1,0.1-0.2,0-0.2l-0.4,0.1l-0.3,0.4h-0.1L68.5,52v0.1
	c0.1,0,0.2,0.1,0.2,0c0,0.1,0,0.2,0.2,0.2l0.3-0.2v0.1l-0.8,0.9c0,0-0.1-0.1-0.2,0L68,53.2l-0.4,0.3l-0.2,0.2h-0.1L67.2,54v0.2
	L67,54.3h-0.2c-0.1,0-0.3,0.1-0.4,0l-0.2-0.2l-0.3-0.2l-0.4-0.1c0,0-0.3,0-0.4,0.2h-0.4l0.2-0.2l0.1-0.1c0.2-0.2,0.3-0.2,0.5-0.2
	l0.3-0.2c0.2-0.1,0.1-0.3,0.2-0.4v-0.3l-0.2-0.2l-0.3,0.2c0,0.1-0.3,0-0.3,0.2l-0.4,0.4v0.1l-1.2-0.1C63.6,53.2,63.6,48.8,63.6,48.8
	z M63.6,43.6c3.8,0.1,7.4,1.6,10.1,4.2l-3.1,3.1c-1.9-1.7-4.4-2.7-7-2.8C63.6,48.1,63.6,43.6,63.6,43.6z M71.1,44.7h0.6
	c0.2,0.1,0.1,0.3,0.3,0.3v-0.1h0.2v0.3c0.2,0,0.2,0.2,0.3,0.3v0.2l-1.6-1H71.1 M63.6,40.5l0.2-0.2l0.3-0.1V40H64
	c-0.1,0-0.3,0-0.3-0.2v-1.5c3,0.1,5.9,0.8,8.6,2.1h-0.2c0.1,0.2,0,0.3,0,0.4h-0.2V41c-0.1,0,0,0.1,0,0.2H72V41l0.1,0.2l0.3,0.1
	c0,0.2,0.2,0.2,0.3,0.3c0.1,0,0,0.3,0.2,0.4l0.1,0.4v0.4l0.4,0.2v0.1c0.2,0,0.1,0.1,0.1,0.2v0.3c-0.1,0,0,0.2,0,0.2v0.3l0.2,0.2v0.2
	l0.1,0.4L74,45l0.4-0.1l0.1-0.2c0.2,0,0.4-0.2,0.6,0l0.2,0.1l0.4,0.6v0.2l-1,1.2c-0.2,0-0.2-0.2-0.2-0.2v-0.3h0.2V46l-0.1-0.2
	L74.4,46v0.1l-0.1-0.3l-0.1-0.2v-0.1c-0.1-0.1,0-0.3-0.2-0.4l-0.4-0.3h-0.3c-0.2,0-0.2-0.1-0.3-0.2c0,0,0-0.2-0.2-0.2L72.6,44
	l-0.3-0.2c0-0.2-0.2-0.2-0.2-0.3h-0.4l0.2,0.4l0.3,0.4l0.1,0.3H72l-0.1-0.3l-0.2-0.2h-0.1V44l-0.1-0.2h-0.2L71.1,44l0.2,0.1h0.1v0.1
	h-0.2c-0.2,0-0.3-0.1-0.4,0v0.2c-0.1,0,0-0.2-0.2-0.2V44c-0.2,0-0.2,0.1-0.3,0.2v0.1c-2.1-1.1-4.4-1.6-6.7-1.7L63.6,40.5L63.6,40.5z
	 M63.6,36.9h0.5c0.2,0,0.4,0,0.4,0.2l0.3,0.1h0.3c0.1,0,0.1,0.3,0.3,0.3H66v-0.1l-0.3-0.2l-0.2-0.3v-0.4c-0.2,0-0.2-0.2-0.2-0.2h0.2
	l0.6,0.3l0.4-0.2c0.2,0,0.4,0,0.6-0.2H68V36h0.6l-0.2-0.2c0-0.1-0.2,0-0.2-0.2h-0.3l-0.2-0.1l-0.4-0.1H67l-0.3,0.2l-0.6,0.2
	c-0.1,0-0.2,0-0.3,0.2h-0.4v0.2l-0.1-0.1L65,36l-0.6,0.1l-0.2,0.2h-0.3l-0.3,0.2v-3.4c6.5,0.1,12.8,2.7,17.5,7.2L78.4,43v-0.2
	c-0.2,0-0.2-0.2-0.3-0.2c-0.1,0-0.3,0-0.4-0.2v-0.2l-0.2-0.3v-0.2c-0.2-0.2-0.4-0.3-0.5-0.6l-0.3-0.3l-0.5-0.3H76
	c0-0.2-0.2-0.3-0.3-0.5h-0.3L75,39.9c-0.3-0.1-0.5-0.3-0.8-0.2c-0.2,0.1-0.5,0-0.6,0.2L73.3,40c-3-1.6-6.2-2.5-9.6-2.5V37L63.6,36.9
	z M75.2,49.3C75.2,49.3,75.1,49.3,75.2,49.3l0.1,0.3c0.5,0.5,0.9,1.1,1.3,1.7c-0.1,0.1-0.4,0-0.4,0.2v0.3L76,52v0.2h0.3l0.3,0.2h0.3
	c0,0.2,0.1,0.3,0.2,0.3l0.3,0.2l0.5,1.6v0.6l-0.2,0.3l-0.2,0.2l-0.1,0.3l-0.3,0.4h-0.6l0.1-0.4l0.1-0.3l0.2-0.3c0,0-0.1-0.1,0-0.2
	v-0.3h-0.2c-0.1-0.2-0.1-0.3-0.3-0.3c-0.1-0.1-0.3-0.2-0.5-0.2h-0.2l-0.4,0.4v0.1c-0.2,0.1-0.2,0.4-0.4,0.4l-0.3-0.3l-0.1-0.2v-0.2
	h0.1v0.2l0.1,0.2l0.4-0.1v-0.2c-0.2-0.1-0.3-0.3-0.5-0.2c-0.1,0,0-0.2-0.2-0.2h-0.1L74.2,54l-0.1-0.3L74,53.6
	c-0.1-0.2-0.3-0.3-0.5-0.3l-0.4-0.1l-0.2-0.1h-0.4l-0.8-1H72c0,0,0.2,0,0.1-0.1c0-0.2-0.3,0-0.3-0.2L71.7,52l-0.6-0.7l3.1-3.1
	L75.2,49.3 M77.7,43.1h0.4l-0.5,0.2L77.7,43.1 M76.4,47.5l0.3,0.1v-0.2h0.5v0.3c0,0.2,0.3,0.3,0.4,0.5l0.5,0.2
	c0,0.1,0.3,0.1,0.3,0.3c0.1,0,0.3,0,0.3,0.2c0.1,0,0.1,0.1,0.2,0h0.3l0.3,0.3l0.2,0.2l0.1,0.1l0.4,0.5l0.1,0.2l0.3,0.3l0.2,0.1v0.3
	h0.5l0.3-0.1l0.3-0.1l0.1-0.2c1.1,2.5,1.7,5.1,1.8,7.8h-4.5c0-0.8,0-1.6-0.2-2.3l0.2-0.4l0.1-0.4v-0.8c-0.2,0-0.4,0.2-0.5,0.4
	l-0.2,0.1v0.3l-0.2,0.3v0.2c0,0.2-0.1,0.2-0.2,0.3v0.3l-0.2,0.3v0.8c0.2,0,0.3-0.1,0.4,0v0.9h-3.1V58h0.3c0-0.1,0.1-0.2,0.3-0.2
	c0-0.1,0.3-0.1,0.3-0.4c-0.1-0.1-0.1-0.3-0.1-0.4l0.2-0.1l0.3-0.1h0.2l0.6-0.1c0,0,0.2,0,0.2-0.2v-0.1l0.2-0.3
	c0.2,0,0.4-0.3,0.4-0.4l0.2-0.4V55h0.1v-0.2l0.1-0.2v-0.2l0.3-0.1v-0.2L78.7,54c0.2,0,0.1-0.2,0.1-0.2v-0.2h-0.3
	c-0.1-0.1,0-0.2,0-0.4v-0.4l-0.1-0.2l-0.1-0.4v-0.1c0-0.2-0.3-0.3-0.4-0.5c-0.2-0.1-0.3,0-0.3-0.2l-0.2-0.3V51l0.3-0.2v-0.2h-0.5
	l0.1-0.1V50l-0.1-0.2l-0.3,0.1h-0.2l-0.1-0.3l-0.2-0.3V49c0-0.2-0.3,0-0.3-0.3l-0.3-0.4l-0.3-0.2h-0.1c0,0-0.2,0-0.1-0.1v-0.5
	l-0.1-0.1H75l0.7-0.8c0.2,0.1,0.3,0.3,0.3,0.4c0.1,0.2,0.3,0,0.4,0.2v0.1h-0.1 M70.3,52.1l0.1-0.2h0.2l-0.1,0.3v0.1
	c0.1,0.1,0.2,0,0.4,0l0.2,0.3L71,52.7l0.2,0.2h0.1l0.3,0.5h-0.2v0.5L71,53.8l-0.1,0.1v0.3l0.2,0.4h-0.3c0-0.2-0.2-0.2-0.3-0.3H71V54
	l-0.2-0.2v-0.3l0.1-0.1c0-0.1,0-0.3,0.2-0.3V53c0-0.1,0-0.3-0.2-0.3h-0.4L70.3,53L70,53.2h-0.4V53l0.5-0.5h0.5v-0.3 M69.4,63.8h1
	l0.3,0.3v0.2c-0.2,0-0.1,0.2-0.3,0.2l-0.2-0.2l-0.1-0.2h-0.8v-0.2c-0.1-0.2-0.2-0.3,0-0.4c0,0,0-0.1,0.1,0h0.1L69.4,63.8 M73.6,67.7
	L73.4,68l-0.1,0.2v0.3h-0.7l-0.4,0.2h-0.4l-0.2-0.2H71l-0.4-0.1c0,0-0.3,0-0.4-0.2H70L69.7,68l-0.3-0.1l-0.5-0.1v-0.2h0.5l-0.2-0.2
	l0.2-0.1l0.2,0.4h0.5l0.6,0.3h0.5l0.3,0.1h0.1l0.3,0.2l0.4,0.1l0.6-0.1l0.1-0.1V68l0.2-0.2l0.1-0.2l0.1-0.4l0.1-0.1v-0.4l0.1-0.4
	l0.1-0.2l0.1-0.2V65c-0.1-0.1-0.2-0.2-0.2-0.3v-0.2h-0.4l-0.4,0.1l-0.2,0.1v0.2L72.4,65c0,0.2,0,0.3-0.2,0.4H72l-0.2,0.2l-0.5-0.1
	v-0.2l0.3-0.1H72c0,0,0.2,0,0.3-0.2l0.1-0.3l0.2-0.2H73l0.3-0.5l0.1-0.1l0.2-0.3l0.1-0.3c0.1-0.1,0.3-0.2,0.3-0.4v-0.3l0.1-0.2
	l0.1,0.1v0.4h0.4l0.2-0.1v-0.2c0.1,0,0-0.2,0.2-0.2h0.2c0.1,0.2,0.3,0.2,0.5,0.1c0.1,0,0.3,0,0.4-0.2c0.3,0,0.5,0,0.7-0.2h0.6V62
	c0.1-0.2,0-0.3,0-0.4l-0.1-0.2H77c-0.1-0.2-0.3-0.2-0.3-0.4l-0.3-0.1c0-0.2-0.2,0-0.3-0.1L76,60.5v-0.2c-0.1-0.2-0.4-0.3-0.4-0.5
	l-0.1-0.3v-0.1l-0.3-0.3V59h3.2c0,3.7-1.5,7.3-4,10v-0.8l-0.2-0.4v-0.3L74,67.2h-0.3l-0.2,0.4l-0.1,0.1 M74.4,75.5
	c0-0.2,0.1-0.2,0.2-0.3v-0.6h-0.1c0-0.2,0-0.3-0.2-0.4l0.2-0.3l0.3-0.4l0.1-0.2l0.2-0.3h0.1v-0.4l-0.3-0.3L74.7,72l-0.2-0.1
	l-0.2-0.1c-0.2,0-0.3-0.2-0.4-0.3v-0.6l0.1-0.2v-0.2c0.2,0,0.3-0.2,0.4-0.3l1,1.1c0,0.2-0.2,0-0.2,0.2v0.1l0.3-0.1v-0.1l0.6,0.5v0.4
	l0.2,0.3v0.2l0.2,0.3h0.2l0.3,0.1h0.2l0.3,0.3L74.4,76V75.5 M77.9,72.3l-0.1-0.5l-0.1-0.4c0-0.2,0-0.4-0.2-0.6v-0.4l-0.3-0.1
	c-0.1,0-0.3-0.2-0.5-0.1h-0.1v0.3l-0.1,0.6h-0.1L75,69.8c2.7-2.9,4.3-6.8,4.3-10.8h4.5c-0.1,5.2-2.1,10.3-5.8,14l-0.2-0.3L77.9,72.3
	 M84.5,44.5c2.8,4.1,4.4,8.9,4.5,13.8h-4.4c-0.1-2.9-0.8-5.8-2-8.4l0.2-0.1v-0.7L82.6,49l-0.1-0.4c0-0.1-0.2-0.1-0.2-0.3L82,48.1
	l-0.2-0.4l-0.3-0.4c0,0,0-0.2-0.2-0.2c-0.1-0.2,0-0.4-0.2-0.4s-0.3-0.2-0.4-0.3l-0.1-0.2c-0.2-0.1-0.3-0.2-0.4-0.3
	c0-0.2-0.2-0.4-0.3-0.5l-0.4-0.3l-0.4-0.4l-0.5-0.6V44l3-3C82.8,42,83.7,43.2,84.5,44.5 M87.7,48.5C81.8,35,66.1,28.8,52.6,34.6
	c-6.2,2.7-11.2,7.7-13.9,13.9c-3.6,8.2-2.6,17.7,2.5,25c2.9,4.3,7,7.7,11.8,9.7c11.7,5.1,25.4,1,32.4-9.6c5-7.4,5.9-16.8,2.4-25
	 M107.8,56.4h4.1v25c0,5.6,3.5,8.5,7.9,8.5c4.3,0,7.8-3,7.8-8.5v-25h4v25c0,7.8-4.8,12.5-11.8,12.5c-7.1,0-12-4.7-12-12.5
	C107.8,81.4,107.8,56.4,107.8,56.4z M163.2,93.4h-4.1l-15.7-29.1v29.1h-4.1v-37h4.1l15.7,29.1V56.4h4.1V93.4z M174.9,60.5v28.9h7.9
	c4.3,0,7.8-3,7.8-8.5v-12c0-5.6-3.5-8.4-7.8-8.5L174.9,60.5L174.9,60.5z M182.8,56.5c7,0,11.9,4.7,11.9,12.4v12
	c0,7.7-4.9,12.5-12,12.5h-11.9v-37L182.8,56.5L182.8,56.5z M246,60.5h-8.4v12.3h8.5c4.2,0,6.5-2.7,6.5-6.2c0-3.6-2.3-6.1-6.5-6.1
	 M237.6,76.7v16.7h-4v-37H246c7.9,0,10.7,5.3,10.7,10.2c0,4.5-2.4,9.1-8.7,10l9.9,16.8h-4.7l-9.9-16.8h-5.8L237.6,76.7z M214.6,60.5
	h-8.5v12.3h8.5c4.2,0,6.5-2.7,6.5-6.2C221.1,63,218.8,60.5,214.6,60.5 M206.1,76.7v16.7h-4v-37h12.5c7.9,0,10.7,5.3,10.7,10.2
	c0,4.5-2.4,9.1-8.7,10l9.9,16.8h-4.7l-9.9-16.8h-5.8V76.7z M280,58.7v8.8c0,1.4-0.4,2.4-1,3s-1.8,1.1-3.2,1.1c-1.4,0-2.4-0.3-3.1-1
	s-1.1-1.8-1.1-3.1v-8.8h2.6v8.8c0,0.7,0.1,1.2,0.3,1.6s0.7,0.4,1.3,0.4s1-0.1,1.3-0.4s0.3-0.8,0.3-1.6v-8.8L280,58.7L280,58.7z
	 M284.1,62v0.9c0.6-0.7,1.4-1.1,2.3-1.1c1.6,0,2.5,1.1,2.5,3.4v6.3h-2.5v-6c0-0.6,0-1-0.2-1.3s-0.5-0.3-0.9-0.3s-0.8,0.2-1,0.7v6.9
	h-2.5V62L284.1,62L284.1,62z M290.7,59.5c0-0.4,0-0.7,0.3-1s0.6-0.3,1-0.3s0.8,0.1,1,0.3s0.4,0.6,0.4,1s-0.1,0.7-0.4,1
	s-0.6,0.3-1,0.3s-0.7-0.1-1-0.3S290.7,59.9,290.7,59.5z M293.3,71.5h-2.5V62h2.5V71.5z M298,59.6V62h1.3v1.8h-1.2v4.7l0.1,0.8
	c0.1,0.2,0.3,0.2,0.6,0.2h0.6v1.9c-0.4,0.2-0.9,0.2-1.4,0.2c-1.6,0-2.4-0.9-2.4-2.7v-5h-1.1v-2h1v-2.3h2.6L298,59.6z M304.5,71.7
	c-1.2,0-2.2-0.4-3-1.2s-1-1.8-1-3.3v-0.7c0-1.5,0.3-2.7,1-3.5s1.6-1.2,2.8-1.2c1.2,0,2,0.4,2.7,1.1c0.6,0.8,0.9,2,0.9,3.4v1.3h-5
	c0,0.7,0.2,1.2,0.5,1.5s0.7,0.5,1.3,0.5c0.8,0,1.5-0.3,2-0.9l1,1.5c-0.2,0.5-0.7,0.8-1.3,1S305.2,71.7,304.5,71.7z M303,65.8h2.5
	v-0.2c0-0.6-0.1-1-0.3-1.3s-0.5-0.5-1-0.5s-0.7,0.2-0.9,0.5C303.1,64.6,303,65.1,303,65.8L303,65.8z M309,66.4
	c0-1.5,0.2-2.7,0.7-3.5s1.3-1.1,2.4-1.1c0.7,0,1.3,0.3,1.8,1V58h2.5v13.5H314v-1c-0.6,0.8-1.3,1.2-2,1.2c-1,0-1.8-0.4-2.3-1.2
	s-0.8-1.9-0.8-3.3v-0.8H309z M311.4,67c0,1,0.2,1.6,0.4,2s0.5,0.6,1,0.6c0.4,0,0.8-0.3,1-0.7v-4.3c-0.2-0.5-0.5-0.7-1-0.7
	s-0.8,0.1-1,0.5c-0.2,0.4-0.4,1-0.4,2V67z M331.4,71.5h-2.6L325,63v8.4h-2.5V58.7h2.5l3.8,8.4v-8.4h2.6L331.4,71.5L331.4,71.5z
	 M337.8,71.5l-0.2-0.8c-0.4,0.6-1,1-1.8,1s-1.4-0.3-2-0.9s-0.8-1.2-0.8-2c0-1,0.4-1.8,1-2.3s1.5-0.8,2.7-0.8h0.8v-0.8
	c0-0.4,0-0.7-0.2-1s-0.4-0.2-0.7-0.2c-0.6,0-0.9,0.4-0.9,1.1h-2.5c0-0.9,0.4-1.6,1-2.2s1.5-0.8,2.5-0.8s1.9,0.3,2.4,0.8
	s0.9,1.3,0.9,2.3v4.5c0,0.8,0.1,1.4,0.3,1.9v0.2L337.8,71.5L337.8,71.5z M336.4,69.7c0.3,0,0.5,0,0.7-0.2l0.4-0.4v-2h-0.6
	c-0.4,0-0.7,0.2-1,0.4s-0.4,0.7-0.4,1.1C335.5,69.4,335.8,69.7,336.4,69.7z M344.7,59.6V62h1.2v1.8h-1.2v4.7l0.1,0.8
	c0.1,0.2,0.3,0.2,0.6,0.2h0.6v1.9c-0.4,0.2-0.9,0.2-1.4,0.2c-1.6,0-2.4-0.9-2.4-2.7v-5H341v-2h1v-2.3h2.6L344.7,59.6z M347.3,59.5
	c0-0.4,0.1-0.7,0.4-1s0.5-0.3,1-0.3s0.7,0.1,1,0.3s0.3,0.6,0.3,1s-0.1,0.7-0.4,1s-0.5,0.3-1,0.3s-0.7-0.1-1-0.3
	S347.3,59.9,347.3,59.5z M349.9,71.5h-2.5V62h2.5C349.9,62,349.9,71.5,349.9,71.5z M351.5,66.4c0-1.4,0.4-2.6,1-3.4s1.7-1.2,2.9-1.2
	s2.1,0.4,2.8,1.2s1,2,1,3.4V67c0,1.5-0.3,2.6-1,3.4s-1.6,1.2-2.8,1.2c-1.2,0-2.2-0.4-2.9-1.2s-1-2-1-3.4V66.4z M354,67
	c0,1.7,0.5,2.6,1.4,2.6c0.8,0,1.3-0.7,1.3-2.1v-1.1c0-0.9,0-1.5-0.3-2s-0.6-0.6-1-0.6c-0.5,0-0.8,0.2-1,0.7c-0.2,0.5-0.4,1-0.4,1.9
	V67z M363,62v0.9c0.6-0.7,1.4-1.1,2.3-1.1c1.6,0,2.5,1.1,2.5,3.4v6.3h-2.5v-6c0-0.6,0-1-0.2-1.3s-0.5-0.3-0.9-0.3s-0.8,0.2-1,0.7
	v6.9h-2.5V62L363,62L363,62z M373.8,69c0-0.3-0.1-0.5-0.3-0.7l-1.4-0.7c-1-0.4-1.7-0.8-2-1.3s-0.6-1-0.6-1.6c0-0.9,0.3-1.6,0.9-2.1
	s1.4-0.8,2.3-0.8c1,0,2,0.3,2.5,0.8s1,1.3,1,2.2h-2.5c0-0.8-0.3-1.2-1-1.2c-0.2,0-0.5,0-0.6,0.3c-0.1,0.3-0.3,0.4-0.3,0.7
	c0,0.2,0.1,0.4,0.3,0.5l1.3,0.7c1,0.4,1.8,0.8,2.2,1.3s0.6,1,0.6,1.7c0,0.9-0.3,1.6-1,2s-1.4,0.9-2.5,0.9c-0.7,0-1.3-0.2-1.8-0.5
	s-1-0.6-1.3-1s-0.4-1.1-0.4-1.7h2.4c0,0.5,0,0.8,0.3,1s0.5,0.4,0.9,0.4C373.5,69.9,373.8,69.5,373.8,69L373.8,69z M391,66.2
	c0,1.8-0.4,3-1.2,4s-2,1.5-3.4,1.5s-2.6-0.5-3.4-1.5s-1.2-2.2-1.2-4v-2.1c0-1.8,0.4-3.1,1.2-4.1s2-1.5,3.4-1.5s2.5,0.5,3.4,1.4
	s1.2,2.4,1.2,4.1V66.2z M388.4,64.1c0-1.2-0.1-2-0.5-2.6s-0.8-0.8-1.5-0.8s-1.2,0.2-1.5,0.8s-0.5,1.3-0.5,2.4v2.3
	c0,1.1,0.1,2,0.5,2.5s0.8,0.8,1.5,0.8s1.2-0.3,1.5-0.8s0.5-1.3,0.5-2.4C388.4,66.3,388.4,64.1,388.4,64.1z M393.3,71.5v-7.7H392V62
	h1.2v-1c0-1,0.3-1.9,0.8-2.4s1.3-1,2.3-1l1.1,0.3v2l-0.6-0.1c-0.8,0-1.1,0.4-1.1,1.3v0.8h1.5v1.8h-1.5v7.7h-2.5L393.3,71.5z
	 M399.2,71.5v-7.7H398V62h1.2v-1c0-1,0.3-1.9,0.8-2.4s1.3-1,2.3-1l1,0.3v2l-0.5-0.1c-0.8,0-1.2,0.4-1.2,1.3v0.8h1.5v1.8h-1.5v7.7
	L399.2,71.5L399.2,71.5z M404.5,59.5c0-0.4,0.1-0.7,0.4-1s0.5-0.3,1-0.3s0.7,0.1,1,0.3s0.3,0.6,0.3,1s-0.1,0.7-0.4,1s-0.5,0.3-1,0.3
	s-0.7-0.1-1-0.3S404.5,59.9,404.5,59.5z M407.1,71.5h-2.5V62h2.5C407.1,62,407.1,71.5,407.1,71.5z M412.4,69.6
	c0.8,0,1.1-0.5,1.1-1.4h2.4c0,1-0.4,1.8-1,2.5s-1.4,1-2.4,1c-1.2,0-2.2-0.4-2.8-1.2s-1-1.9-1-3.4v-0.7c0-1.5,0.3-2.7,1-3.5
	s1.5-1.1,2.8-1.1c1,0,1.8,0.3,2.4,1s1,1.5,1,2.7h-2.4c0-0.5,0-1-0.2-1.2s-0.5-0.5-0.9-0.5s-0.7,0.2-0.9,0.5
	c-0.2,0.3-0.3,0.9-0.3,1.8v1l0.1,1.6l0.4,0.7C411.9,69.6,412.1,69.6,412.4,69.6L412.4,69.6z M421.1,71.7c-1.3,0-2.3-0.4-3-1.2
	s-1-1.8-1-3.3v-0.7c0-1.5,0.3-2.7,1-3.5s1.5-1.2,2.7-1.2s2.1,0.4,2.7,1.1c0.6,0.8,1,2,1,3.4v1.3h-5c0,0.7,0.2,1.2,0.5,1.5
	s0.7,0.5,1.3,0.5c0.8,0,1.5-0.3,2-0.9l1,1.5c-0.3,0.5-0.7,0.8-1.3,1S421.8,71.7,421.1,71.7L421.1,71.7z M419.5,65.8h2.5v-0.2
	c0-0.6,0-1-0.3-1.3s-0.4-0.5-0.9-0.5s-0.7,0.2-1,0.5C419.5,64.6,419.6,65.1,419.5,65.8L419.5,65.8z M430.6,71.5v-7.7h-1.2V62h1.2v-1
	c0-1,0.2-1.9,0.8-2.4c0.9-0.8,2.2-1.1,3.4-0.7v2l-0.7-0.1c-0.7,0-1,0.4-1,1.3v0.8h1.4v1.8H433v7.7L430.6,71.5L430.6,71.5z
	 M435.6,66.4c0-1.4,0.3-2.6,1-3.4s1.6-1.2,2.8-1.2c1.2,0,2.2,0.4,2.8,1.2s1,2,1,3.4V67c0,1.5-0.3,2.6-1,3.4s-1.6,1.2-2.8,1.2
	c-1.2,0-2.1-0.4-2.8-1.2c-0.7-0.8-1-2-1-3.4V66.4z M438.1,67c0,1.7,0.4,2.6,1.3,2.6s1.3-0.7,1.4-2.1v-1.1c0-0.9-0.1-1.5-0.4-2
	s-0.5-0.6-1-0.6c-0.4,0-0.7,0.2-1,0.7c-0.3,0.6-0.4,1.3-0.3,1.9V67z M449.5,64.4l-0.8-0.1c-0.7,0-1.2,0.3-1.4,0.9v6.3h-2.5V62h2.3
	l0.1,1c0.4-0.8,1-1.2,1.6-1.2l0.7,0.1L449.5,64.4L449.5,64.4z M271.7,93V80.4h3.4c1.4,0,2.6,0.4,3.5,1.4s1.4,2.2,1.4,3.9v2
	c0,1.7-0.4,3-1.3,4c-1,1-2.1,1.5-3.7,1.5h-3.3V93z M274.3,82.4V91h0.7c0.9,0,1.5-0.2,1.9-0.6c0.3-0.5,0.5-1.3,0.5-2.4v-2.2
	c0-1.2-0.2-2-0.5-2.5s-0.9-0.7-1.7-0.8h-1L274.3,82.4z M282.1,81.1c0-0.4,0.2-0.7,0.4-1s0.6-0.3,1-0.3s0.7,0.1,1,0.3s0.3,0.6,0.3,1
	s0,0.7-0.3,1s-0.6,0.3-1,0.3s-0.8-0.1-1-0.4S282.1,81.5,282.1,81.1z M284.7,93.1h-2.4v-9.5h2.4V93.1L284.7,93.1z M291.3,90.5
	l-0.3-0.6l-1.4-0.7c-1-0.4-1.7-0.8-2-1.3s-0.6-1-0.6-1.6c0-0.9,0.3-1.6,0.9-2.1s1.4-0.8,2.3-0.8c1,0,2,0.3,2.5,0.8s1,1.3,1,2.2h-2.5
	c0-0.8-0.3-1.2-1-1.2c-0.2,0-0.5,0-0.6,0.3s-0.3,0.3-0.3,0.6s0.1,0.4,0.3,0.6l1.3,0.7c1,0.4,1.8,0.8,2.2,1.2s0.6,1.1,0.6,1.8
	c0,0.9-0.3,1.6-1,2s-1.4,0.9-2.5,0.9c-0.6,0-1.2-0.2-1.8-0.5c-1-0.5-1.7-1.5-1.7-2.7h2.4c0,0.5,0,0.8,0.3,1s0.5,0.4,0.9,0.4
	C291,91.5,291.3,91.1,291.3,90.5L291.3,90.5z M300.2,93l-0.2-0.7c-0.5,0.6-1,1-1.8,1s-1.5-0.3-2-0.9s-0.8-1.2-0.8-2
	c0-1,0.3-1.8,1-2.3s1.5-0.8,2.7-0.8h0.8v-0.8c0-0.4-0.1-0.7-0.3-1s-0.3-0.2-0.6-0.2c-0.6,0-1,0.4-1,1.1h-2.4c0-0.9,0.3-1.6,1-2.2
	c0.6-0.5,1.5-0.8,2.5-0.8s1.8,0.3,2.4,0.8s0.9,1.3,0.9,2.3V91c0,0.8,0,1.5,0.3,2H300.2z M298.7,91.3c0.3,0,0.5,0,0.7-0.2l0.5-0.4v-2
	h-0.6c-0.5,0-0.8,0.2-1,0.4s-0.4,0.7-0.4,1.1C297.9,91,298.2,91.3,298.7,91.3z M308.8,90.5l-0.3-0.6l-1.4-0.7c-1-0.4-1.7-0.8-2-1.3
	s-0.7-1-0.7-1.6c0-0.9,0.3-1.6,1-2.1c0.5-0.5,1.3-0.8,2.3-0.8s2,0.3,2.5,0.8s1,1.3,1,2.2h-2.5c0-0.8-0.3-1.2-1-1.2
	c-0.3,0-0.5,0-0.6,0.3s-0.3,0.3-0.3,0.6s0.1,0.4,0.3,0.6l1.3,0.7c1,0.4,1.7,0.8,2.2,1.2s0.6,1.1,0.6,1.8c0,0.9-0.3,1.6-1,2
	s-1.4,0.9-2.5,0.9c-0.6,0-1.2-0.2-1.8-0.5c-1-0.5-1.7-1.5-1.7-2.7h2.3c0,0.5,0.1,0.8,0.3,1s0.5,0.4,1,0.4
	C308.4,91.5,308.8,91.1,308.8,90.5L308.8,90.5z M316,81.2v2.4h1.3v1.8H316v4.7l0.2,0.8c0.1,0.2,0.3,0.2,0.6,0.2h0.6v2l-1.4,0.2
	c-1.6,0-2.4-1-2.4-2.8v-5h-1.1v-2h1v-2.3h2.6L316,81.2z M323,93.3c-1.3,0-2.3-0.4-3-1.2s-1.1-1.8-1.1-3.3v-0.7c0-1.5,0.3-2.7,1-3.5
	s1.6-1.2,2.8-1.2c1.2,0,2,0.4,2.7,1.1s0.9,2,0.9,3.4v1.3h-5c0,0.7,0.2,1.2,0.5,1.5s0.7,0.5,1.3,0.5c0.8,0,1.5-0.3,2-0.9l1,1.5
	c-0.2,0.5-0.7,0.8-1.3,1c-0.6,0.3-1.2,0.5-1.9,0.5L323,93.3z M321.4,87.4h2.5v-0.2c0-0.6-0.1-1-0.3-1.3s-0.5-0.5-1-0.5
	s-0.7,0.2-0.9,0.5S321.4,86.7,321.4,87.4L321.4,87.4z M332.8,86l-0.8-0.1c-0.7,0-1.1,0.3-1.4,0.9V93h-2.5v-9.5h2.4v1
	c0.4-0.8,1-1.2,1.7-1.2l0.7,0.1V86L332.8,86z M343,88.4h-1.2v4.7h-2.6V80.3h4.1c1.3,0,2.3,0.3,3,1s1,1.6,1,2.9
	c0,1.7-0.5,2.8-1.8,3.5l2.3,5.3H345L343,88.4L343,88.4z M341.8,86.2h1.4c0.6,0,1-0.1,1.2-0.5c0.3-0.3,0.4-0.8,0.4-1.4
	c0-1.2-0.5-1.9-1.5-1.9h-1.5V86.2z M349.4,81.1c0-0.4,0.2-0.7,0.4-1s0.6-0.3,1-0.3s0.7,0.1,1,0.3s0.4,0.6,0.4,1s-0.2,0.7-0.4,1
	s-0.6,0.3-1,0.3s-0.8-0.1-1-0.4S349.4,81.5,349.4,81.1z M352.1,93.1h-2.5v-9.5h2.5V93.1L352.1,93.1z M358.6,90.5
	c0-0.2,0-0.4-0.3-0.6l-1.3-0.7c-1-0.4-1.8-0.8-2.2-1.3s-0.5-1-0.5-1.6c0-0.9,0.3-1.6,0.9-2.1s1.4-0.8,2.4-0.8s1.8,0.3,2.5,0.8
	s0.9,1.3,0.9,2.2h-2.5c0-0.8-0.3-1.2-1-1.2c-0.2,0-0.4,0-0.6,0.3s-0.3,0.3-0.3,0.6s0.1,0.4,0.3,0.6l1.3,0.7c1,0.4,1.8,0.8,2.2,1.2
	s0.6,1.1,0.6,1.8c0,0.9-0.3,1.6-1,2s-1.4,0.9-2.4,0.9c-0.7,0-1.3-0.2-1.9-0.5c-1-0.5-1.7-1.5-1.7-2.7h2.4c0,0.5,0,0.8,0.3,1
	s0.5,0.3,0.9,0.3C358.3,91.4,358.6,91.1,358.6,90.5L358.6,90.5z M366.1,89.4l-0.6,0.8V93H363V79.6h2.5v7.3l0.3-0.5l1.7-2.8h3
	l-2.8,3.9l3,5.6H368L366.1,89.4L366.1,89.4z M380.6,88.4h-1.3v4.7h-2.6V80.3h4.1c1.3,0,2.3,0.3,3,1c0.8,0.7,1.1,1.6,1.1,2.9
	c0,1.7-0.6,2.8-1.8,3.5l2.2,5.3h-2.8L380.6,88.4L380.6,88.4z M379.3,86.2h1.5c0.5,0,0.9-0.1,1.1-0.5c0.3-0.3,0.4-0.8,0.4-1.4
	c0-1.2-0.5-1.9-1.5-1.9h-1.5V86.2z M390.8,93.3c-1.3,0-2.3-0.4-3-1.2s-1-1.8-1-3.3v-0.7c0-1.5,0.3-2.7,1-3.5s1.5-1.2,2.7-1.2
	s2.1,0.4,2.7,1.1s1,2,1,3.4v1.3h-5c0,0.7,0.2,1.2,0.5,1.5s0.7,0.5,1.3,0.5c0.8,0,1.5-0.3,2-0.9l1,1.5c-0.3,0.5-0.7,0.8-1.3,1
	C392.1,93.1,391.5,93.3,390.8,93.3L390.8,93.3z M389.2,87.4h2.5v-0.2c0-0.6,0-1-0.3-1.3s-0.4-0.5-0.9-0.5s-0.7,0.2-1,0.5
	S389.3,86.7,389.2,87.4L389.2,87.4z M395.6,88c0-1.5,0.3-2.7,0.8-3.5s1.3-1.1,2.3-1.1c0.8,0,1.4,0.3,1.9,1v-4.8h2.5V93h-2.3l-0.1-1
	c-0.5,0.8-1.2,1.2-2,1.2c-1,0-1.7-0.4-2.3-1.2s-0.7-1.9-0.7-3.3L395.6,88L395.6,88z M398.1,88.7c0,0.9,0.1,1.5,0.3,2
	c0.3,0.3,0.6,0.5,1,0.5c0.6,0,1-0.3,1.2-0.7v-4.3c-0.3-0.5-0.6-0.7-1.1-0.7s-0.8,0.1-1,0.5s-0.4,1-0.4,2V88.7z M410,92.2
	c-0.5,0.7-1.2,1-2,1c-1,0-1.6-0.3-2-0.9s-0.7-1.4-0.7-2.6v-6.1h2.4v6.2c0,1,0.4,1.4,1,1.4c0.5,0,1-0.3,1.2-0.8v-6.8h2.5V93h-2.3
	L410,92.2L410,92.2z M418,91.2c0.7,0,1.1-0.5,1.1-1.4h2.4c0,1-0.4,1.9-1,2.5s-1.4,1-2.4,1c-1.2,0-2.2-0.4-2.8-1.2s-1-1.9-1-3.4V88
	c0-1.5,0.3-2.7,1-3.5s1.5-1.1,2.8-1.1c1,0,1.8,0.3,2.4,1c0.7,0.7,1,1.7,1,2.7H419c0-0.5,0-1-0.2-1.2s-0.5-0.5-0.9-0.5
	s-0.7,0.2-0.9,0.5c-0.2,0.3-0.3,0.9-0.3,1.8v1l0.1,1.6c0,0.3,0.2,0.5,0.4,0.7l0.7,0.2H418z M426.2,81.2v2.4h1.3v1.8h-1.3v4.7
	l0.1,0.8c0.1,0.2,0.3,0.2,0.6,0.2h0.6v2l-1.4,0.2c-1.6,0-2.4-1-2.4-2.8v-5h-1.1v-2h1v-2.3L426.2,81.2L426.2,81.2z M429.2,81.1
	c0-0.4,0.2-0.7,0.4-1s0.6-0.3,1-0.3s0.7,0.1,1,0.3s0.3,0.6,0.3,1s0,0.7-0.3,1c-0.3,0.2-0.6,0.3-1,0.3s-0.8-0.1-1-0.4
	S429.2,81.5,429.2,81.1z M431.8,93.1h-2.5v-9.5h2.5V93.1L431.8,93.1z M433.9,88c0-1.4,0.3-2.6,1-3.4s1.6-1.2,2.8-1.2
	c1.2,0,2.2,0.4,2.9,1.2s1,2,1,3.4v0.6c0,1.5-0.4,2.6-1,3.4s-1.6,1.3-2.9,1.3c-1.2,0-2.1-0.5-2.8-1.3c-0.7-0.8-1-2-1-3.4V88z
	 M436.4,88.6c0,1.7,0.4,2.6,1.3,2.6s1.3-0.7,1.4-2.2v-1c0-0.7-0.1-1.4-0.4-2c-0.2-0.4-0.5-0.6-1-0.6c-0.4,0-0.7,0.2-1,0.7
	c-0.3,0.6-0.4,1.3-0.3,1.9V88.6z M445.8,83.6v0.9c0.6-0.7,1.4-1.1,2.3-1.1c1.6,0,2.5,1.1,2.5,3.4v6.3h-2.5v-6c0-0.6,0-1-0.2-1.3
	c-0.2-0.2-0.5-0.3-0.9-0.3s-0.8,0.2-1,0.7V93h-2.5v-9.5L445.8,83.6L445.8,83.6z"/>
</svg>
